<?xml version="1.0" encoding="UTF-8" standalone="no"?>
<!-- Created with Inkscape (http://www.inkscape.org/) -->

<svg
   width="83.833717mm"
   height="62.66869mm"
   viewBox="0 0 83.833717 62.66869"
   version="1.1"
   id="svg1"
   xml:space="preserve"
   xmlns="http://www.w3.org/2000/svg"
   xmlns:svg="http://www.w3.org/2000/svg"><defs
     id="defs1" /><g
     id="layer1"
     transform="translate(-68.270253,-123.27434)"><g
       id="g8"
       transform="translate(7.7935382,9.4987689)"><path
         style="fill:#d84040"
         d="m 91.754134,174.9839 c 0,-0.80277 -0.03771,-2.19523 -0.08379,-3.09436 l -0.08379,-1.63477 h -2.474085 -2.474084 l -0.03789,-2.31964 c -0.02084,-1.2758 -0.02097,-4.05937 -2.97e-4,-6.1857 l 0.03759,-3.86607 h 2.40435 c 1.699136,0 2.449468,-0.0473 2.558174,-0.16136 0.177573,-0.18628 0.221165,-5.83933 0.04724,-6.12674 -0.08044,-0.13292 -1.224352,-0.16203 -5.285712,-0.13447 l -5.183059,0.0352 -0.06409,3.08103 -0.06409,3.08104 -2.475433,-0.0314 c -1.76912,-0.0225 -2.528056,0.0144 -2.659861,0.12914 -0.150167,0.13074 -0.184427,0.70736 -0.184427,3.10404 v 2.94347 l -5.031303,-0.0352 -5.031302,-0.0352 -0.03462,-2.95212 c -0.02528,-2.1558 -0.07715,-2.98045 -0.192279,-3.05717 -0.08671,-0.0578 -1.23923,-0.10599 -2.561149,-0.10712 l -2.403489,-0.002 v -9.27855 -9.27856 l 2.467582,-0.002 c 1.35717,-10e-4 2.548002,-0.0555 2.646293,-0.12077 0.14835,-0.0985 0.181017,-1.18908 0.192279,-6.41897 l 0.01357,-6.30025 2.691907,-0.0672 2.691907,-0.0672 0.0344,-3.12083 0.0344,-3.12084 0.414255,-0.0766 c 0.227841,-0.0421 2.476469,-0.0598 4.996953,-0.0392 l 4.582697,0.0374 -4.6e-5,-2.99252 -4.6e-5,-2.99252 15.927118,0.0341 15.927113,0.0341 0.0345,2.92476 0.0346,2.92476 1.88824,0.0224 c 1.03853,0.0123 4.51687,0.008 7.72964,-0.009 4.71006,-0.0256 5.86855,0.003 5.98162,0.14575 0.0927,0.11726 0.13697,1.16214 0.1306,3.07993 -0.005,1.59634 0.0319,2.973 0.0827,3.05923 0.0652,0.11069 0.82492,0.15678 2.58443,0.15678 h 2.49206 v 3.22732 3.22733 h 5.12744 5.12745 v 9.41018 9.41018 l -2.53168,0.0365 -2.53167,0.0365 -0.0345,3.05924 -0.0345,3.05923 h -2.56131 -2.56132 v -3.09001 -3.09001 l -2.53167,-0.0365 -2.53168,-0.0365 -0.0641,-3.02561 -0.0641,-3.02562 h -2.62782 -2.62781 l -0.0344,3.0564 -0.0344,3.0564 -2.52928,0.0365 -2.52927,0.0365 -0.0333,6.14931 -0.0333,6.1493 -2.59448,0.0364 -2.59447,0.0364 -0.0641,3.05282 c -0.0386,1.83959 -0.11701,3.1082 -0.19723,3.19217 -0.0864,0.0904 -1.97649,0.15169 -5.38382,0.1745 l -5.25068,0.0352 -0.0641,3.02562 -0.0641,3.02561 -5.223582,0.0351 -5.223582,0.0351 z"
         id="path14" /><path
         style="fill:#b83535"
         d="m 91.753366,174.45852 c -4.23e-4,-1.09173 -0.03781,-2.48419 -0.08309,-3.09436 l -0.08232,-1.10939 H 89.10732 86.626692 l -0.0072,-2.25241 c -0.01228,-3.85793 0.01955,-10.04234 0.05186,-10.07623 0.01695,-0.0178 1.176505,-0.0396 2.576788,-0.0484 l 2.545969,-0.0161 -0.03866,0.98576 c -0.0567,1.44555 -0.06483,2.44622 -0.03125,3.84608 l 0.0299,1.24665 2.595768,-0.0364 2.595767,-0.0364 0.03449,-2.98921 0.03449,-2.9892 -2.598213,-0.0364 -2.598213,-0.0364 -0.06409,-3.16009 -0.06409,-3.16009 H 86.43438 81.178751 l -0.06409,3.08103 -0.06409,3.08104 -2.475433,-0.0314 c -1.76912,-0.0225 -2.528056,0.0144 -2.659861,0.12914 -0.150167,0.13074 -0.184427,0.70736 -0.184427,3.10404 v 2.94347 l -5.031303,-0.0352 -5.031302,-0.0352 -0.06409,-3.02562 -0.06409,-3.02562 -2.531675,-0.0365 -2.531675,-0.0365 v -9.27571 -9.27571 h 2.556156 c 1.905446,0 2.581942,-0.0428 2.657447,-0.16809 0.05571,-0.0924 0.102377,-2.98191 0.103705,-6.42103 l 0.0024,-6.25293 2.723953,-0.0363 2.723954,-0.0363 v -3.15132 -3.15132 l 0.416605,-0.0763 c 0.229132,-0.0419 2.464377,-0.0598 4.967209,-0.0397 l 4.550605,0.0366 v 7.8666 7.8666 H 78.486877 75.79497 l -0.03369,-4.74013 -0.03369,-4.74013 h -2.038853 c -1.121369,0 -2.130096,0.0367 -2.241616,0.0816 -0.180946,0.0728 -0.202763,0.76733 -0.202763,6.45465 v 6.37302 h 2.307349 2.307349 v 3.16061 3.16061 l 15.927118,-0.0341 15.927116,-0.0341 0.0263,-2.89115 c 0.0145,-1.59012 0.0289,-2.99581 0.032,-3.12374 0.005,-0.21161 0.24569,-0.23587 2.6656,-0.26894 l 2.65986,-0.0363 0.0641,-9.54749 0.0641,-9.5475 7.68527,-0.0273 c 4.74543,-0.0169 7.74181,0.0219 7.83308,0.10137 0.10338,0.09 0.14782,1.01241 0.14782,3.06831 0,1.61679 0.0405,3.00833 0.09,3.09233 0.0622,0.10549 0.86047,0.15271 2.58203,0.15271 h 2.49206 v 3.1457 c 0,2.74442 -0.0259,3.15611 -0.20276,3.22732 -0.11152,0.0449 -1.26132,0.0816 -2.55512,0.0816 h -2.35235 l -0.0126,3.16008 -0.0126,3.16009 h 2.57223 2.57223 l -0.009,-2.79029 c -0.005,-1.53466 -0.007,-2.9567 -0.005,-3.16009 l 0.005,-0.36979 h 5.12744 5.12745 v 9.41018 9.41018 l -2.53168,0.0365 -2.53167,0.0365 -0.0345,3.05924 -0.0345,3.05923 h -2.56131 -2.56132 v -3.09001 -3.09001 l -2.53167,-0.0365 -2.53168,-0.0365 -0.0641,-3.02561 -0.0641,-3.02562 h -2.62782 -2.62781 l -0.0344,3.05923 -0.0345,3.05924 h -2.56131 -2.56132 v 6.18291 6.18292 l -2.59576,0.0364 -2.59577,0.0364 -0.0641,3.02561 c -0.0353,1.66409 -0.11076,3.10126 -0.1678,3.19371 -0.0802,0.13001 -1.30642,0.16809 -5.41346,0.16809 h -5.30975 l -0.0345,3.05923 -0.0344,3.05923 -5.223581,0.0351 -5.223582,0.0351 z M 107.7133,160.80816 v -3.0592 l 2.72395,-3e-5 2.72396,-4e-5 v -6.1857 -6.1857 h -2.69191 -2.69191 v 3.09285 3.09285 h -5.31972 -5.319722 v 2.95838 c 0,1.62711 -0.01442,3.00376 -0.03205,3.05923 -0.01763,0.0555 1.15047,0.13111 2.595767,0.16809 l 2.627815,0.0672 0.0219,2.8239 c 0.0121,1.55315 0.0265,2.93104 0.032,3.06197 0.009,0.22099 0.20077,0.23544 2.66999,0.2017 l 2.65986,-0.0363 z M 71.116179,148.4031 v -3.02561 h -2.691907 -2.691907 v 3.02561 3.02562 h 2.691907 2.691907 z m 68.066791,-6.2144 v -3.13707 l -2.53167,0.0365 -2.53167,0.0365 -0.0346,3.01605 c -0.02,1.74579 0.0154,3.04839 0.084,3.09285 0.0652,0.0422 1.22003,0.0803 2.56624,0.0846 l 2.44765,0.008 z m -15.63869,-9.65889 v -6.38179 l -1.12163,-0.02 c -0.6169,-0.011 -1.72731,-0.0356 -2.46758,-0.0548 l -1.34596,-0.0348 -0.0641,6.34136 c -0.0352,3.48774 -0.0258,6.40186 0.0209,6.47582 0.0532,0.0842 1.00019,0.1198 2.53167,0.0952 l 2.44668,-0.0392 z M 91.625948,130.7873 v -4.7791 l 2.723954,0.0363 2.723953,0.0363 v 4.70652 4.70651 l -2.723953,0.0363 -2.723954,0.0363 z M 81.242877,116.80223 v -3.02666 l 15.927118,0.0341 15.927115,0.0341 v 2.95838 2.95838 l -15.927115,0.0341 -15.927118,0.0342 z"
         id="path13" /><path
         style="fill:#6a1818"
         d="m 91.753366,174.45852 c -4.23e-4,-1.09173 -0.03781,-2.48419 -0.08309,-3.09436 l -0.08232,-1.10939 h -2.474784 -2.474784 l -0.03789,-2.31964 c -0.02084,-1.2758 -0.02098,-4.0581 -3.09e-4,-6.18288 l 0.03758,-3.86324 2.52614,-0.0364 2.526139,-0.0364 v -3.16009 -3.16009 H 86.43442 81.178791 l -0.06409,3.08103 -0.06409,3.08104 -2.475433,-0.0314 c -1.76912,-0.0225 -2.528056,0.0144 -2.659861,0.12914 -0.150167,0.13074 -0.184427,0.70736 -0.184427,3.10404 v 2.94347 l -5.031303,-0.0352 -5.031302,-0.0352 -0.06409,-3.02562 -0.06409,-3.02562 -2.531675,-0.0365 -2.531675,-0.0365 v -9.27571 -9.27571 h 2.556156 c 1.905446,0 2.581942,-0.0428 2.657447,-0.16809 0.05571,-0.0924 0.102377,-2.98191 0.103705,-6.42103 l 0.0024,-6.25293 2.691907,-0.0361 2.691907,-0.0361 v 6.42349 6.42349 h 2.307349 2.307349 l 0.01996,3.16008 0.01996,3.16009 15.810402,0.0319 c 8.695723,0.0175 15.878803,0.0594 15.962393,0.0931 0.1103,0.0444 0.15548,0.87482 0.16469,3.02735 l 0.0127,2.96617 -2.66371,0.0336 c -1.46503,0.0185 -3.87506,0.0336 -5.355608,0.0336 h -2.691907 l -0.03441,3.12647 -0.03441,3.12647 -2.401126,0.023 c -1.320619,0.0126 -2.516493,0.0289 -2.657498,0.0362 -0.248571,0.0128 -0.256372,0.10719 -0.256372,3.10347 v 3.09031 l 2.627814,-0.0489 c 1.445298,-0.0269 2.640931,-0.0608 2.656962,-0.0754 0.103272,-0.094 0.145241,-1.00613 0.153606,-3.33838 l 0.0095,-2.65582 h 2.563721 2.563718 v 3.02562 3.02561 l 1.69847,0.0103 c 0.93415,0.006 1.81383,0.036 1.95483,0.0673 0.14101,0.0314 0.6169,0.0197 1.05754,-0.026 l 0.80116,-0.083 v -3.00995 -3.00995 h 2.69191 2.69191 v -6.32017 -6.32018 h -2.69191 -2.69191 v -3.09012 -3.09012 l 2.65986,-0.0363 2.65986,-0.0363 0.0641,-9.61474 0.0641,-9.61473 7.68527,-0.0273 c 4.74543,-0.0169 7.74181,0.0219 7.83308,0.10137 0.10338,0.09 0.14782,1.01241 0.14782,3.06831 0,1.61679 0.0405,3.00833 0.09,3.09233 0.0622,0.10549 0.86047,0.15271 2.58203,0.15271 h 2.49206 v 3.16009 3.16008 h -2.56372 -2.56372 l -0.0204,2.31964 c -0.0112,1.2758 -0.0256,2.74323 -0.032,3.26094 l -0.0117,0.94131 2.59576,0.0364 2.59577,0.0364 v -3.23011 -3.2301 h 5.12744 5.12745 v 9.41018 9.41018 l -2.53168,0.0365 -2.53167,0.0365 -0.0345,3.05924 -0.0345,3.05923 h -2.56131 -2.56132 v -3.09001 -3.09001 l -2.53167,-0.0365 -2.53168,-0.0365 -0.0641,-3.02561 -0.0641,-3.02562 h -2.62782 -2.62781 l -0.0344,3.05923 -0.0345,3.05924 h -2.56131 -2.56132 v 6.18291 6.18292 l -2.59576,0.0364 -2.59577,0.0364 -0.0641,3.02561 c -0.0353,1.66409 -0.11076,3.10126 -0.1678,3.19371 -0.0802,0.13001 -1.30642,0.16809 -5.41346,0.16809 h -5.30975 l -0.0345,3.05923 -0.0344,3.05923 -5.223581,0.0351 -5.223582,0.0351 z M 71.142591,148.94099 c -0.0068,-1.40523 -0.01558,-2.81214 -0.01942,-3.12647 l -0.007,-0.57151 h -2.691907 -2.691907 l -0.0087,1.17663 c -0.0048,0.64715 -0.02423,2.0238 -0.04324,3.05924 -0.019,1.03543 -0.01099,1.92918 0.01781,1.9861 0.0288,0.0569 1.268353,0.0872 2.754567,0.0672 l 2.702206,-0.0363 z m 68.138839,-6.75721 -0.0344,-3.1937 h -2.56372 -2.56372 l -0.0344,3.1937 -0.0344,3.19371 h 2.63246 2.63245 z m -15.67306,-9.64835 v -6.45465 l -2.59577,-0.0364 -2.59577,-0.0364 v 6.43502 c 0,3.53926 0.0396,6.4766 0.0881,6.52742 0.0485,0.0508 1.21654,0.076 2.59577,0.056 l 2.50768,-0.0364 z m -45.722759,2.92803 c -1.772009,-0.0384 -2.019096,-0.0712 -2.07673,-0.27559 -0.03598,-0.12757 -0.05383,-2.22885 -0.03966,-4.66952 l 0.02575,-4.43757 -2.275302,-0.0367 -2.275303,-0.0367 v -3.07517 -3.07517 l 0.296503,-0.0781 c 0.163076,-0.0429 2.38436,-0.0774 4.936186,-0.0766 l 4.639683,10e-4 -0.03307,7.89501 -0.03307,7.89501 -0.576837,0.007 c -0.31726,0.004 -1.481928,-0.013 -2.58815,-0.037 z m 13.795399,-0.0239 c -0.03028,-0.0318 -0.05506,-2.13164 -0.05506,-4.66639 v -4.60862 l 0.602449,-0.0948 c 0.551783,-0.0868 4.780333,0.003 4.825791,0.10248 0.01082,0.0237 -0.0092,2.13072 -0.04443,4.68232 l -0.06409,4.63928 -2.604798,0.002 c -1.432639,9.6e-4 -2.629576,-0.0243 -2.659861,-0.056 z M 81.242877,116.80189 v -3.02632 l 15.927118,0.0341 15.927115,0.0341 0.0281,2.90705 0.0281,2.90705 -0.58188,0.0837 c -0.32004,0.046 -7.4999,0.0843 -15.955233,0.0851 l -15.37334,0.001 z"
         id="path12" /><path
         style="fill:#8a2222"
         d="m 91.88232,173.37606 c 0,-2.10195 -0.04359,-2.97876 -0.153823,-3.0944 -0.10872,-0.11405 -0.859728,-0.16136 -2.561279,-0.16136 -2.390392,0 -2.407953,-0.002 -2.477558,-0.30257 -0.03856,-0.1664 -0.05408,-2.87433 -0.03449,-6.01761 l 0.03561,-5.71505 2.465122,-0.0365 2.465121,-0.0365 0.03451,2.99489 0.03451,2.99489 2.627814,-0.0489 c 1.445298,-0.0269 2.640931,-0.0608 2.656962,-0.0754 0.103272,-0.094 0.145241,-1.00613 0.153606,-3.33838 l 0.0095,-2.65582 h 2.563721 2.563724 v 3.02562 3.02561 l 1.69847,0.0103 c 0.93415,0.006 1.81383,0.036 1.95483,0.0673 0.14101,0.0314 0.6169,0.0197 1.05754,-0.026 l 0.80116,-0.083 v -3.00995 -3.00995 h 2.69191 2.69191 v -6.32017 -6.32018 h -2.69191 -2.69191 v -3.09012 -3.09012 l 2.65986,-0.0363 2.65986,-0.0363 0.0329,-9.51388 0.0329,-9.51388 h 7.75199 7.75199 l 0.0345,3.05923 0.0344,3.05923 2.56372,0.0744 c 1.41005,0.0409 2.57814,0.0863 2.59577,0.10086 0.0176,0.0145 0.032,1.41819 0.032,3.11926 v 3.09285 h -2.49963 -2.49963 l -0.0204,2.31964 c -0.0112,1.2758 -0.0256,2.74323 -0.032,3.26094 l -0.0117,0.94131 2.59576,0.0364 2.59577,0.0364 v -3.1443 -3.1443 l 0.80117,-0.081 c 0.44063,-0.0446 2.58935,-0.0533 4.77493,-0.0195 2.18557,0.0339 4.10355,0.062 4.26218,0.0624 l 0.28842,8.8e-4 v 9.27855 9.27855 h -2.43956 c -2.08195,0 -2.4507,0.0305 -2.51556,0.20779 -0.0418,0.11428 -0.0833,1.52119 -0.0921,3.12647 l -0.0161,2.91868 -2.46758,0.0365 -2.46758,0.0365 v -3.00163 c 0,-2.1553 -0.0434,-3.04712 -0.15382,-3.16299 -0.10844,-0.11375 -0.84603,-0.16137 -2.49963,-0.16137 h -2.34581 v -2.93148 c 0,-2.10075 -0.0436,-2.97721 -0.15382,-3.09285 -0.21742,-0.22808 -5.24331,-0.22808 -5.46073,0 -0.11023,0.11564 -0.15382,0.9921 -0.15382,3.09285 v 2.93148 h -2.48591 c -2.14858,0 -2.49648,0.0289 -2.56373,0.21271 -0.0428,0.11699 -0.0778,2.92744 -0.0778,6.24545 v 6.03274 l -2.57227,-0.006 c -1.41474,-0.003 -2.61168,0.0354 -2.65986,0.0859 -0.0482,0.0505 -0.0984,1.43322 -0.11161,3.07268 -0.0132,1.63946 -0.0276,3.0356 -0.032,3.10252 -0.005,0.0716 -1.65574,0.0891 -4.01385,0.0424 -2.2032,-0.0436 -4.61149,-0.0379 -5.35177,0.0128 l -1.34595,0.0921 -0.0641,3.02562 -0.0641,3.02561 -5.095397,0.0352 -5.095396,0.0352 z m 47.39911,-31.19228 -0.0344,-3.1937 h -2.56372 -2.56372 l -0.0344,3.1937 -0.0344,3.19371 h 2.63246 2.63245 z m -15.67306,-9.64835 v -6.45465 l -2.59577,-0.0364 -2.59577,-0.0364 v 6.43502 c 0,3.53926 0.0396,6.4766 0.0881,6.52742 0.0485,0.0508 1.21654,0.076 2.59577,0.056 l 2.50768,-0.0364 z m -57.666561,31.17064 c -0.04469,-0.0469 -0.08126,-1.34097 -0.08126,-2.87574 0,-1.53478 -0.03501,-2.88622 -0.07781,-3.00321 -0.06703,-0.18324 -0.402922,-0.2127 -2.425051,-0.2127 -1.290984,0 -2.438487,-0.0367 -2.550006,-0.0816 -0.182114,-0.0733 -0.202564,-0.99426 -0.200801,-9.04323 0.0011,-4.92888 0.04695,-9.0359 0.101938,-9.1267 0.0721,-0.11906 0.795184,-0.17529 2.593804,-0.2017 l 2.493831,-0.0366 0.03333,-6.3148 c 0.01833,-3.47314 0.07602,-6.35834 0.128186,-6.41156 0.156833,-0.15999 3.007632,-0.29069 4.153304,-0.19042 l 1.068993,0.0936 v 6.34437 6.34438 h 2.307349 2.307349 l 0.01996,3.16008 0.01996,3.16009 15.810402,0.0319 c 8.695723,0.0175 15.878803,0.0594 15.962393,0.0931 0.1103,0.0444 0.15548,0.87482 0.16469,3.02735 l 0.0127,2.96617 -2.66371,0.0336 c -1.46503,0.0185 -3.87506,0.0336 -5.355608,0.0336 h -2.691907 l -0.03441,3.12647 -0.03441,3.12647 -2.27294,0.002 c -1.250117,0.001 -2.402728,0.0383 -2.561358,0.0829 l -0.288419,0.0811 v -3.17104 c 0,-2.99749 -0.01357,-3.17866 -0.247945,-3.31024 -0.158893,-0.0892 -2.063877,-0.13921 -5.304025,-0.13921 -4.047609,0 -5.084269,0.0356 -5.197402,0.17864 -0.09099,0.11501 -0.153644,1.22837 -0.175928,3.12646 l -0.03461,2.94784 -2.627814,0.0672 -2.627814,0.0672 -0.06409,3.02562 -0.06409,3.02562 -4.757766,0.0292 c -2.616771,0.0161 -4.794331,-0.009 -4.839023,-0.056 z m 5.200782,-14.76508 c -0.0068,-1.40523 -0.01558,-2.81214 -0.01942,-3.12647 l -0.007,-0.57151 h -2.691907 -2.691907 l -0.0087,1.17663 c -0.0048,0.64715 -0.02423,2.0238 -0.04324,3.05924 -0.019,1.03543 -0.01099,1.92918 0.01781,1.9861 0.0288,0.0569 1.268353,0.0872 2.754567,0.0672 l 2.702206,-0.0363 z m 6.74302,-13.47753 c -1.772009,-0.0384 -2.019096,-0.0712 -2.07673,-0.27559 -0.03598,-0.12757 -0.05383,-2.22885 -0.03966,-4.66952 l 0.02575,-4.43757 -2.206369,-0.0368 -2.20637,-0.0368 -0.03689,-2.92161 c -0.02029,-1.60688 -0.01906,-2.96699 0.0027,-3.02246 0.02179,-0.0555 2.228657,-0.10085 4.904158,-0.10085 h 4.864546 l -0.03309,7.76574 -0.03309,7.76575 -0.576837,0.007 c -0.31726,0.004 -1.481928,-0.013 -2.58815,-0.037 z m 13.795399,-0.0239 c -0.03028,-0.0318 -0.05506,-2.13164 -0.05506,-4.66639 v -4.60862 l 0.602449,-0.0948 c 0.551783,-0.0868 4.780333,0.003 4.825791,0.10248 0.01082,0.0237 -0.0092,2.13072 -0.04443,4.68232 l -0.06409,4.63928 -2.604798,0.002 c -1.432639,9.6e-4 -2.629576,-0.0243 -2.659861,-0.056 z M 81.371064,116.86964 v -2.95855 l 15.798931,1.6e-4 15.798935,1.5e-4 v 2.87925 2.87925 l -0.46357,0.0777 c -0.25496,0.0427 -7.36448,0.0783 -15.798933,0.0791 l -15.335363,10e-4 z"
         id="path11" /><path
         style="fill:#751818"
         d="m 91.88232,173.37606 c 0,-2.10195 -0.04359,-2.97876 -0.153823,-3.0944 -0.10872,-0.11405 -0.859728,-0.16136 -2.561279,-0.16136 -2.390392,0 -2.407953,-0.002 -2.477558,-0.30257 -0.03856,-0.1664 -0.05408,-2.87433 -0.03449,-6.01761 l 0.03561,-5.71505 2.451348,-0.0365 2.451348,-0.0365 0.09501,5.91591 c 0.07812,4.86464 0.127437,5.94416 0.277501,6.07481 0.129028,0.11233 1.453094,0.17771 4.519335,0.22314 3.630268,0.0538 4.543168,0.0283 5.603248,-0.15659 1.21586,-0.21204 2.83502,-0.27236 2.67022,-0.0995 -0.0435,0.0456 -0.63676,0.11329 -1.31831,0.15029 l -1.23918,0.0673 -0.0641,3.02562 -0.0641,3.02561 -5.095396,0.0352 -5.095396,0.0352 z m 15.76688,-3.37618 c -0.33979,-0.0644 -0.39422,-0.10801 -0.22432,-0.17979 0.20315,-0.0858 0.22432,-0.34849 0.22432,-2.7821 0,-1.58221 0.0551,-2.81435 0.13397,-2.99622 0.13374,-0.30833 0.1382,-0.30881 2.50888,-0.26685 1.60917,0.0285 2.43024,-0.006 2.54655,-0.10741 0.13192,-0.11485 0.17433,-0.75704 0.18321,-2.77427 0.006,-1.44366 0.0664,-2.73225 0.13334,-2.86353 0.10664,-0.20904 0.40374,-0.25025 2.3906,-0.3316 1.24786,-0.0511 2.31781,-0.12465 2.37768,-0.16347 0.0599,-0.0388 0.10885,-1.29651 0.10885,-2.79489 0,-2.04744 0.0485,-2.89554 0.19507,-3.41342 0.15157,-0.53542 0.1873,-1.26809 0.16023,-3.28535 l -0.0348,-2.59626 -2.10952,-0.0371 c -1.16024,-0.0204 -2.27029,0.0217 -2.46679,0.0936 -0.60311,0.22055 -0.67365,-0.10228 -0.7221,-3.30477 -0.0381,-2.52027 -0.0177,-2.88545 0.17907,-3.20046 0.15274,-0.24455 0.28623,-0.32617 0.42746,-0.26137 0.25165,0.11545 1.14789,0.16693 3.11709,0.17901 1.40601,0.009 1.51118,0.0278 1.65083,0.30158 0.10206,0.20006 0.14258,1.19771 0.12835,3.16009 l -0.0208,2.86772 2.27965,-0.002 c 1.25381,-0.001 2.36611,-0.0594 2.47178,-0.12947 0.15362,-0.10188 0.20105,-0.53939 0.23663,-2.18311 0.0245,-1.13063 -0.01,-2.36786 -0.0764,-2.74939 -0.1091,-0.62622 -0.0922,-0.73214 0.17407,-1.08901 0.27898,-0.37396 0.32816,-0.38959 0.90972,-0.28925 0.33813,0.0583 1.39352,0.11061 2.3453,0.11615 0.95178,0.006 1.81704,0.0674 1.92279,0.13735 0.15744,0.1042 0.2039,0.63883 0.25638,2.95003 0.0468,2.06228 0.10899,2.86974 0.23075,2.99714 0.12232,0.12799 0.74648,0.17806 2.34617,0.18822 1.19874,0.008 2.23125,0.0681 2.29446,0.13447 0.0632,0.0663 0.12419,1.37291 0.1355,2.90346 0.0186,2.51722 0.0431,2.80425 0.2569,3.0072 0.20664,0.19618 0.49071,0.2157 2.2612,0.15539 1.11368,-0.0379 2.12425,-0.11113 2.24572,-0.16266 0.12146,-0.0515 0.25099,-0.2845 0.28784,-0.51772 0.0368,-0.23323 0.0817,-2.96557 0.0996,-6.07187 l 0.0326,-5.64781 -2.59577,-0.0364 -2.59577,-0.0364 v -3.0715 -3.07149 l 0.80117,-0.081 c 0.44063,-0.0446 2.58935,-0.0533 4.77493,-0.0195 2.18557,0.0339 4.10355,0.062 4.26218,0.0624 l 0.28842,8.8e-4 v 9.27855 9.27855 h -2.43956 c -2.08195,0 -2.4507,0.0305 -2.51556,0.20779 -0.0418,0.11428 -0.0833,1.52119 -0.0921,3.12647 l -0.0161,2.91868 -2.46758,0.0365 -2.46758,0.0365 v -3.00163 c 0,-2.1553 -0.0434,-3.04712 -0.15382,-3.16299 -0.10844,-0.11375 -0.84603,-0.16137 -2.49963,-0.16137 h -2.34581 v -2.93148 c 0,-2.10075 -0.0436,-2.97721 -0.15382,-3.09285 -0.21742,-0.22808 -5.24331,-0.22808 -5.46073,0 -0.11023,0.11564 -0.15382,0.9921 -0.15382,3.09285 v 2.93148 h -2.48591 c -2.14858,0 -2.49648,0.0289 -2.56373,0.21271 -0.0428,0.11699 -0.0778,2.92744 -0.0778,6.24545 v 6.03274 l -2.57227,-0.006 c -1.41474,-0.003 -2.61168,0.0354 -2.65986,0.0859 -0.0482,0.0505 -0.0984,1.43322 -0.11161,3.07268 -0.0132,1.63946 -0.0276,3.02622 -0.032,3.08169 -0.01,0.12003 -4.61738,0.1029 -5.26367,-0.0196 z m -1.30589,-0.10592 c 0.0925,-0.0388 0.20309,-0.0341 0.24569,0.0106 0.0426,0.0447 -0.0331,0.0765 -0.16824,0.0706 -0.14933,-0.006 -0.17971,-0.0383 -0.0774,-0.0813 z m -40.401501,-6.18789 c -0.04469,-0.0469 -0.08126,-1.34097 -0.08126,-2.87574 0,-1.53478 -0.03501,-2.88622 -0.07781,-3.00321 -0.06703,-0.18324 -0.402922,-0.2127 -2.425051,-0.2127 -1.290984,0 -2.438487,-0.0367 -2.550006,-0.0816 -0.182114,-0.0733 -0.202564,-0.99426 -0.200801,-9.04323 0.0011,-4.92888 0.04695,-9.0359 0.101938,-9.1267 0.0721,-0.11906 0.795184,-0.17529 2.593804,-0.2017 l 2.493831,-0.0366 0.03333,-6.3148 c 0.01833,-3.47314 0.07602,-6.35885 0.128186,-6.4127 0.153856,-0.1588 3.118662,-0.2921 4.178769,-0.18789 l 0.976938,0.096 0.0333,6.34244 0.03329,6.34245 2.275303,0.0367 2.275302,0.0367 v 3.15554 3.15554 l 5.479954,0.0351 5.479954,0.0351 -0.06409,0.7396 c -0.10348,1.19409 -0.07347,4.67428 0.04134,4.79472 0.05799,0.0608 1.153982,0.13209 2.435535,0.15837 1.281553,0.0263 2.370516,0.0874 2.419916,0.13592 0.0494,0.0485 -2.221631,0.0717 -5.046737,0.0515 -3.674694,-0.0262 -5.1862,0.007 -5.310986,0.11521 -0.135488,0.11796 -0.182122,0.81661 -0.20889,3.1295 l -0.03446,2.97763 -2.627814,0.0672 -2.627814,0.0672 -0.06409,3.02562 -0.06409,3.02562 -4.757766,0.0292 c -2.616771,0.0161 -4.794331,-0.009 -4.839023,-0.056 z m 9.549047,-6.17948 c 0.141402,-0.17868 0.184205,-1.32974 0.218101,-5.86528 0.0232,-3.10364 0.0059,-5.79445 -0.03836,-5.97958 l -0.08053,-0.3366 -2.168397,0.0581 c -1.706627,0.0457 -2.182086,0.0207 -2.23268,-0.11763 -0.03535,-0.0967 -0.07037,-1.43517 -0.07782,-2.97448 -0.0074,-1.53931 -0.0649,-2.886 -0.127674,-2.99265 -0.0916,-0.15561 -0.576811,-0.19976 -2.45674,-0.22351 l -2.342596,-0.0296 -0.159014,0.31838 c -0.278244,0.55708 -0.469399,8.52857 -0.316247,13.188 0.07293,2.21878 0.155092,4.17125 0.182582,4.33881 0.0895,0.54556 0.290601,0.61817 1.85838,0.67095 0.82919,0.0279 1.565301,0.0722 1.635803,0.0985 0.0705,0.0262 1.433428,0.0525 3.028723,0.0583 2.549178,0.009 2.921849,-0.0163 3.076466,-0.21168 z m 16.391464,-2.78947 c 0,-1.65961 -0.02955,-3.09805 -0.06566,-3.19655 -0.05365,-0.14633 0.417144,-0.17196 2.573734,-0.14011 l 2.63939,0.039 -0.03272,-2.99735 -0.03272,-2.99736 h 2.682569 2.682567 l 0.0233,2.35326 c 0.0128,1.29429 0.0581,2.64069 0.10055,2.992 l 0.0772,0.63874 h -2.758051 -2.758053 l -0.03441,3.12647 -0.03441,3.12646 -2.531674,0.0365 -2.531675,0.0365 z m -13.812047,-19.27671 -2.21121,-0.0402 v -4.70333 -4.70334 h -2.238399 -2.2384 l -0.0369,-2.92476 c -0.0203,-1.60862 -0.01908,-2.97015 0.0027,-3.02562 0.02179,-0.0555 2.228189,-0.10085 4.903116,-0.10085 h 4.863505 v 7.71644 7.71645 l -0.288418,0.0811 c -0.15863,0.0446 -0.346103,0.0683 -0.416605,0.0527 -0.0705,-0.0156 -1.12323,-0.0465 -2.339395,-0.0686 z m 13.669452,-0.19653 c -0.06614,-0.12965 -0.10255,-2.15304 -0.08349,-4.63928 l 0.0338,-4.40934 2.659861,-0.0363 2.65986,-0.0363 v 4.64201 c 0,2.5531 -0.04326,4.64739 -0.09614,4.65398 -0.05288,0.007 -1.212244,0.0217 -2.576372,0.0336 -2.221647,0.0194 -2.492461,-0.002 -2.597526,-0.20829 z m 37.269455,-2.90131 c -0.0342,-0.0581 -0.0931,-1.39556 -0.13095,-2.97214 -0.0468,-1.95261 -0.11829,-2.92919 -0.2242,-3.06306 -0.12574,-0.15894 -0.59872,-0.19706 -2.47239,-0.19926 -1.27429,-0.002 -3.09563,-0.0306 -4.04741,-0.0646 -0.95178,-0.034 -3.31682,-0.009 -5.25563,0.0564 -2.50835,0.0842 -3.55228,0.0761 -3.61929,-0.0277 -0.0518,-0.0803 -0.0951,-1.49236 -0.0961,-3.13795 l -0.002,-2.992 h 7.75285 7.75284 l 0.0345,3.05923 0.0344,3.05923 2.56372,0.0744 c 1.41005,0.0409 2.57814,0.0863 2.59577,0.10086 0.0176,0.0145 0.032,1.41819 0.032,3.11926 v 3.09285 h -2.42797 c -1.33539,0 -2.45598,-0.0475 -2.4902,-0.10562 z m -47.638122,-15.52672 6e-6,-2.92476 15.798931,1.6e-4 15.798935,1.5e-4 v 2.89002 2.89002 l -15.798941,0.0346 -15.798937,0.0346 z"
         id="path10" /><path
         style="fill:#000000"
         d="m 91.882339,173.27198 -1.9e-5,-2.96678 5.095396,0.0433 5.095394,0.0433 v 2.92244 2.92244 l -5.095376,0.001 -5.095377,10e-4 z m -5.192679,-3.45425 c -0.03856,-0.1664 -0.05408,-2.87433 -0.03449,-6.01761 l 0.03561,-5.71505 2.403488,-0.0366 2.403489,-0.0366 v 5.84149 c 0,3.21282 0.03501,5.93721 0.07781,6.0542 0.06928,0.18938 -0.190495,0.21271 -2.368999,0.21271 -2.431202,0 -2.447255,-0.002 -2.51691,-0.30257 z m 21.28001,0.2249 c -0.0827,-0.0364 -0.10544,-1.09445 -0.0641,-2.98139 l 0.0641,-2.92494 2.46776,-0.0672 c 2.13635,-0.0582 2.46789,-0.0401 2.46864,0.13448 0.008,1.73987 0.0117,5.62185 0.006,5.74867 -0.006,0.12861 -0.57176,0.16559 -2.41084,0.15747 -1.32191,-0.006 -2.46117,-0.036 -2.53167,-0.067 z m -42.027861,-6.33656 c -0.04469,-0.0469 -0.08126,-1.3769 -0.08126,-2.95559 v -2.87035 l 4.839023,0.0352 4.839024,0.0352 v 2.89114 2.89115 l -4.757766,0.0292 c -2.616771,0.0161 -4.794331,-0.009 -4.839023,-0.056 z m 47.636001,0.002 c -0.25468,-0.0542 -0.29124,-0.15075 -0.31254,-0.82526 -0.0516,-1.63268 0.0575,-4.67022 0.17233,-4.79801 0.0683,-0.076 1.07944,-0.15339 2.32569,-0.178 1.84657,-0.0365 2.23093,-0.0789 2.36512,-0.26102 0.12952,-0.17581 0.16024,0.39007 0.16024,2.95215 v 3.16965 l -2.21121,9.4e-4 c -1.21617,5.2e-4 -2.341,-0.0267 -2.49963,-0.0605 z m -52.812655,-6.18298 c -0.125965,-0.0533 -0.159813,-1.98505 -0.15827,-9.03261 0.0011,-4.93063 0.04858,-9.04183 0.105546,-9.136 0.07911,-0.13076 0.661687,-0.16254 2.465619,-0.13447 l 2.362036,0.0367 0.03014,9.07014 c 0.02353,7.07959 -0.0046,9.0933 -0.128186,9.17564 -0.170965,0.11392 -4.412295,0.13256 -4.676889,0.0206 z m 15.182049,0.002 c -0.04848,-0.0509 -0.08814,-2.74279 -0.08814,-5.98208 0,-5.68527 0.0086,-5.89445 0.247945,-6.02882 0.386419,-0.21695 10.126263,-0.18936 10.199834,0.0289 0.03117,0.0924 0.07262,1.42378 0.09212,2.95853 l 0.03545,2.79043 -2.580072,-1.5e-4 c -1.989016,-1.1e-4 -2.612447,0.0408 -2.721393,0.17849 -0.09099,0.11501 -0.153644,1.22837 -0.175928,3.12646 l -0.03461,2.94784 -2.443533,0.0364 c -1.343944,0.02 -2.483197,-0.005 -2.531675,-0.056 z M 91.88232,154.5888 v -3.02561 h 2.355746 c 2.034252,0 2.379756,0.0303 2.531675,0.22223 0.210834,0.26632 0.304317,4.96173 0.109488,5.49929 l -0.119493,0.32971 H 94.321028 91.88232 Z m 42.3014,0.0298 c 0,-2.1553 -0.0434,-3.04712 -0.15382,-3.16299 -0.10844,-0.11375 -0.84603,-0.16137 -2.49963,-0.16137 h -2.34581 v -2.95837 -2.95838 h 2.37144 2.37145 v 2.88153 c 0,2.51532 0.0273,2.91016 0.2146,3.10667 0.18885,0.19811 0.50255,0.21943 2.61354,0.17759 l 2.39894,-0.0476 -0.0178,3.02573 -0.0178,3.02572 -2.46758,0.0365 -2.46758,0.0365 z m -36.98839,-3.36145 c -0.03452,-0.0944 -0.04713,-1.44076 -0.02802,-2.992 l 0.03473,-2.82043 2.362054,-0.0367 c 1.556656,-0.0242 2.408966,0.0125 2.499626,0.10758 0.13278,0.13929 0.22405,5.36259 0.1004,5.74507 -0.0793,0.24537 -4.87899,0.24202 -4.968791,-0.003 z m 21.37924,-2.88767 0.0345,-2.92476 2.40349,-0.0366 2.40349,-0.0366 v 2.96135 2.96134 h -2.43804 -2.43803 z m 20.65753,2.8157 c 0.0353,-0.06 0.0779,-2.77889 0.0947,-6.04201 0.0241,-4.71165 -0.004,-5.97636 -0.13648,-6.14387 -0.14107,-0.17831 -0.55098,-0.21093 -2.65081,-0.21093 h -2.48393 v -3.00705 -3.00704 l 0.80117,-0.081 c 0.44063,-0.0446 2.58935,-0.0533 4.77493,-0.0195 2.18557,0.0339 4.10355,0.062 4.26218,0.0624 l 0.28842,8.8e-4 v 9.27855 9.27855 h -2.50719 c -1.37896,0 -2.47828,-0.0491 -2.44294,-0.10906 z m -67.925488,-6.24473 c -0.03895,-0.16641 -0.05447,-1.5128 -0.03449,-2.99199 l 0.03634,-2.68944 2.050977,-0.0785 c 1.128037,-0.0432 2.096657,-0.0376 2.152489,0.0124 0.108037,0.0967 0.222611,5.59773 0.12251,5.88208 -0.04404,0.12511 -0.595971,0.16809 -2.158085,0.16809 -2.070209,0 -2.099882,-0.004 -2.169737,-0.30256 z m 42.101838,0.0891 c -0.26001,-0.32891 -0.23873,-5.45726 0.024,-5.78938 0.15612,-0.19734 0.42896,-0.21333 2.41732,-0.14166 1.92419,0.0694 2.26439,0.11386 2.40419,0.31443 0.11902,0.17075 0.16285,0.96866 0.16285,2.9646 0,2.50996 -0.0182,2.73125 -0.22432,2.73443 -0.12338,0.002 -1.20906,0.0363 -2.41262,0.0764 -1.96661,0.0655 -2.20685,0.0494 -2.37144,-0.15879 z m 10.30613,-2.91303 0.022,-2.992 2.42058,0.0246 c 1.53616,0.0156 2.47131,0.0779 2.55945,0.17034 0.0906,0.095 0.14036,1.12651 0.14315,2.96732 l 0.004,2.82163 -2.5857,3e-5 -2.58569,3e-5 z m -55.931238,-3.18194 -1.858698,-0.079 -0.03336,-6.1776 c -0.01835,-3.39768 0.0105,-6.22289 0.06409,-6.27823 0.156115,-0.1612 3.112803,-0.29566 4.184574,-0.1903 l 0.98015,0.0964 -0.03401,6.23015 c -0.0187,3.42659 -0.0639,6.26147 -0.100426,6.29975 -0.131627,0.13791 -1.378563,0.17642 -3.202327,0.0989 z m 8.289365,-3.59768 c -0.117591,-0.12336 -0.09546,-6.88563 0.0263,-8.03642 0.148797,-1.40632 0.157287,-1.40171 -2.530925,-1.37551 l -2.186262,0.0213 -0.03668,-2.89114 c -0.02018,-1.59013 -0.01886,-2.93653 0.0029,-2.992 0.02179,-0.0555 2.222532,-0.10085 4.890547,-0.10085 h 4.850935 l -0.001,7.63127 c -7.42e-4,5.57972 -0.04044,7.65784 -0.147662,7.73007 -0.183161,0.12339 -4.751321,0.13584 -4.868167,0.0133 z m 15.766884,0 c -0.106783,-0.11202 -0.11409,-8.68522 -0.0076,-8.9762 0.06714,-0.18355 0.408828,-0.21271 2.492062,-0.21271 1.53254,0 2.444335,0.0511 2.496616,0.1398 0.150822,0.256 0.187394,8.77723 0.03848,8.96546 -0.102938,0.13011 -0.734744,0.17329 -2.535575,0.17329 -1.319161,0 -2.436931,-0.0403 -2.483933,-0.0896 z m 37.295019,-3.1135 c -0.0357,-0.0607 -0.0745,-1.43732 -0.086,-3.05923 l -0.021,-2.94894 2.16149,-0.0383 c 1.18882,-0.0211 2.29128,-0.005 2.44991,0.0362 l 0.28842,0.0745 v 3.02305 3.02305 h -2.36388 c -1.30013,0 -2.39312,-0.0496 -2.42886,-0.11029 z m -15.72471,-6.49388 c -0.0663,-0.12991 -0.12051,-1.48069 -0.12051,-3.00172 v -2.76551 h 7.69116 7.69117 v 2.95838 2.95838 l -1.50619,0.009 c -13.95103,0.0862 -13.62875,0.0899 -13.75563,-0.15883 z M 81.371064,116.8022 v -2.89114 l 15.798931,-1e-5 15.798935,-1e-5 -0.0279,2.72306 c -0.0154,1.49769 -0.0298,2.79871 -0.032,2.89115 -0.003,0.13354 -3.24513,0.16809 -15.770992,0.16809 H 81.371064 Z"
         id="path9" /><path
         style="fill:#551212"
         d="m 91.88232,173.28538 c 0,-2.81413 0.0085,-2.91144 0.246491,-2.8322 0.35459,0.11807 9.247269,0.13272 9.591789,0.0158 l 0.28842,-0.0979 v 2.90104 2.90105 l -1.44209,-0.0752 c -1.052927,-0.0549 -1.52858,-0.13681 -1.762563,-0.3034 -0.436876,-0.31106 -2.302093,-0.33238 -2.316119,-0.0265 -0.0071,0.15541 -0.02925,0.14883 -0.09641,-0.0287 -0.06298,-0.16647 -0.140506,-0.19503 -0.279409,-0.10292 -0.105736,0.0701 -0.341264,0.12842 -0.523395,0.12955 -0.182132,0.001 -0.370779,0.0436 -0.419216,0.0944 -0.117752,0.12352 -0.421749,0.16335 -1.973591,0.25855 l -1.313907,0.0806 z m 7.121173,1.24155 c -0.120095,-0.0705 -0.25562,-0.0891 -0.301167,-0.0413 -0.112797,0.11833 0.252227,0.34281 0.400801,0.24648 0.0653,-0.0423 0.02046,-0.13466 -0.09963,-0.20516 z m -6.643005,-0.76658 c -0.01025,-0.1428 -0.06183,-0.23163 -0.114621,-0.1974 -0.05279,0.0342 -0.06348,0.15106 -0.02377,0.25963 0.100143,0.27376 0.160566,0.24659 0.13839,-0.0622 z m 7.829172,-1.29036 c -0.0395,-0.0414 -0.11115,0.0332 -0.15928,0.16585 -0.06957,0.19165 -0.05485,0.2071 0.0718,0.0753 0.0876,-0.0912 0.12699,-0.19972 0.0875,-0.24113 z m -13.428141,-2.51081 c 0.0037,-0.0963 -0.02376,-2.68632 -0.06091,-5.75564 -0.03715,-3.06932 -0.03342,-5.71674 0.0083,-5.88314 0.07513,-0.29964 0.09818,-0.30257 2.387551,-0.30257 h 2.311687 l -0.08036,5.318 c -0.06724,4.44935 -0.112263,5.36578 -0.27566,5.61051 -0.240583,0.36032 -0.247229,0.5016 -0.0236,0.5016 0.09444,0 0.234295,0.14411 0.310795,0.32024 l 0.139093,0.32024 -2.361773,0.0229 c -1.868222,0.0181 -2.360384,-0.0137 -2.355131,-0.15215 z m 3.969697,-0.7162 c 0.08918,-0.11273 0.125087,-0.24384 0.07979,-0.29136 -0.0453,-0.0475 -0.08236,-0.0158 -0.08236,0.0705 0,0.0863 -0.08312,0.15688 -0.184714,0.15688 -0.101593,0 -0.220365,0.0605 -0.263938,0.13447 -0.127749,0.21684 0.273499,0.15416 0.451222,-0.0705 z m -2.181733,-0.44051 c 0,-0.16758 -0.28958,-0.43031 -0.474289,-0.43031 -0.09165,0 -0.166642,0.12103 -0.166642,0.26895 0,0.19722 0.08546,0.26894 0.320465,0.26894 0.176256,0 0.320466,-0.0484 0.320466,-0.10758 z m 1.793078,-0.0823 c -0.08342,-0.0875 -0.176942,-0.0801 -0.273956,0.0216 -0.110937,0.11637 -0.07967,0.14917 0.12666,0.13287 0.180436,-0.0143 0.230718,-0.067 0.147296,-0.15452 z m 0.0015,-1.71532 c 0,-0.24262 0.125835,-0.52507 0.328761,-0.73795 0.215857,-0.22644 0.298221,-0.42061 0.239832,-0.56539 -0.04891,-0.12128 -0.100137,-0.31128 -0.113838,-0.42222 -0.05409,-0.43797 -0.222914,-0.8068 -0.335797,-0.73361 -0.06543,0.0424 -0.118958,-0.0193 -0.118958,-0.13725 0,-0.16768 -0.05218,-0.18508 -0.239517,-0.0799 -0.131735,0.074 -0.275945,0.0963 -0.320466,0.0495 -0.04452,-0.0467 -0.08095,0.02 -0.08095,0.14827 0,0.17174 0.06734,0.21076 0.255566,0.14809 0.187337,-0.0624 0.236955,-0.0342 0.185857,0.10547 -0.04599,0.12572 -0.187479,0.16709 -0.415799,0.12159 -0.312298,-0.0622 -0.328661,-0.0469 -0.16759,0.15766 0.09818,0.12465 0.205988,0.19779 0.239586,0.16255 0.0336,-0.0353 0.140745,0.0195 0.238106,0.12162 0.234731,0.24624 0.225793,0.7316 -0.01526,0.82863 -0.105753,0.0426 -0.192279,0.13502 -0.192279,0.20543 0,0.0704 0.04718,0.0974 0.104851,0.06 0.05767,-0.0374 0.08119,0.24339 0.05227,0.62395 -0.04717,0.62073 -0.03158,0.67364 0.151521,0.51422 0.112256,-0.0977 0.204102,-0.35457 0.204102,-0.57075 z m -0.64093,0.17946 c 0,-0.0616 -0.08653,-0.11206 -0.192279,-0.11206 -0.105753,0 -0.192279,0.0504 -0.192279,0.11206 0,0.0616 0.08653,0.11206 0.192279,0.11206 0.105754,0 0.192279,-0.0504 0.192279,-0.11206 z m 0.128186,-1.36713 c 0,-0.074 -0.05768,-0.13447 -0.128186,-0.13447 -0.0705,0 -0.128186,0.0605 -0.128186,0.13447 0,0.074 0.05768,0.13447 0.128186,0.13447 0.0705,0 0.128186,-0.0605 0.128186,-0.13447 z m -1.570279,-7.48865 c -0.123379,-0.0338 -0.325272,-0.0338 -0.448651,0 -0.123379,0.0338 -0.02243,0.0615 0.224325,0.0615 0.246759,0 0.347705,-0.0277 0.224326,-0.0615 z m 20.244552,11.69323 c -0.40605,-0.0442 -0.46374,-0.0859 -0.33828,-0.24448 0.0996,-0.12583 0.11771,-0.36421 0.0531,-0.69731 -0.14914,-0.76933 -0.10959,-3.12855 0.0554,-3.30157 0.10453,-0.10966 0.14249,-0.0865 0.14249,0.0871 0,0.13009 0.0586,0.19853 0.13028,0.15207 0.0717,-0.0464 0.0912,-0.15592 0.0435,-0.24326 -0.0499,-0.0913 -0.0372,-0.1112 0.03,-0.0467 0.0642,0.0616 0.11669,0.18266 0.11669,0.26894 0,0.0863 0.0817,0.15689 0.18159,0.15689 0.0999,0 0.20831,0.0841 0.24096,0.18681 0.0362,0.114 0.003,0.14997 -0.0864,0.0923 -0.1833,-0.11884 0.10777,0.61415 0.3022,0.761 0.2141,0.16173 0.45126,0.11642 0.45126,-0.0862 0,-0.12338 -0.0898,-0.16449 -0.25828,-0.11827 -0.1983,0.0544 -0.23983,0.0204 -0.17885,-0.14628 0.0437,-0.11943 0.12615,-0.18686 0.18324,-0.14985 0.0571,0.037 0.12401,0.004 0.1487,-0.074 0.0247,-0.0777 0.16147,-0.15049 0.30394,-0.16175 0.1526,-0.0121 0.25906,-0.11607 0.25906,-0.2531 0,-0.12794 -0.0451,-0.20338 -0.10024,-0.16764 -0.20158,0.1307 -0.61394,0.16554 -0.61394,0.0519 0,-0.0643 0.10094,-0.13794 0.22432,-0.16367 0.1947,-0.0406 0.17985,-0.0938 -0.11245,-0.40288 -0.2534,-0.26794 -0.301,-0.39605 -0.19228,-0.51743 0.11205,-0.1251 0.0815,-0.12735 -0.13614,-0.01 -0.18457,0.0995 -0.30783,0.10514 -0.36008,0.0165 -0.0437,-0.0742 -0.0122,-0.13483 0.07,-0.13483 0.0822,0 0.11555,-0.0927 0.0741,-0.20602 -0.12466,-0.34078 0.4609,-0.46634 2.1748,-0.46634 h 1.59745 l -0.0145,1.9796 c -0.009,1.24994 -0.057,1.89997 -0.12979,1.76356 -0.0634,-0.11882 -0.12349,-0.61508 -0.13357,-1.10279 -0.0199,-0.96172 -0.20672,-1.12451 -0.21901,-0.19081 -0.004,0.3139 -0.069,0.59221 -0.14412,0.61849 -0.0751,0.0263 -0.0985,0.11246 -0.0519,0.19153 0.0501,0.085 0.0242,0.10453 -0.0633,0.0478 -0.0814,-0.0528 -0.14799,-0.16995 -0.14799,-0.26039 0,-0.21204 -0.59995,-0.26698 -0.71848,-0.0658 -0.0555,0.0942 -0.0332,0.11623 0.0577,0.0572 0.10095,-0.0654 0.148,0.0516 0.148,0.36825 0,0.44884 0.25669,0.72622 0.51629,0.55791 0.1083,-0.0702 0.0413,0.55692 -0.0818,0.76589 -0.0357,0.0605 0.0683,0.095 0.23102,0.0767 0.20312,-0.0229 0.28524,0.0298 0.26196,0.16829 -0.0234,0.13916 0.0265,0.1205 0.16083,-0.0602 0.10895,-0.14652 0.16019,-0.37608 0.11631,-0.52111 -0.0516,-0.17048 -0.0298,-0.22772 0.0635,-0.16721 0.0781,0.0506 0.14192,0.45152 0.14192,0.89091 v 0.7989 l -1.95483,-0.0226 c -1.07516,-0.0124 -2.17513,-0.0466 -2.44438,-0.0759 z m 0.68182,-0.78349 c 0,-0.10657 -0.0515,-0.19377 -0.11447,-0.19377 -0.14149,0 -0.27932,0.34891 -0.17929,0.45385 0.11221,0.11771 0.29376,-0.043 0.29376,-0.26008 z m 1.25301,-2.3117 c -0.0491,-0.19663 0.0233,-0.23202 0.4401,-0.2152 0.3363,0.0136 0.4759,-0.0302 0.42843,-0.13447 -0.0387,-0.085 -0.10601,-0.2605 -0.14953,-0.38992 -0.11891,-0.35367 -0.54893,-0.2888 -0.6914,0.1043 -0.0677,0.18679 -0.21857,0.37806 -0.33528,0.42504 -0.19291,0.0777 -0.19086,0.10177 0.0226,0.26549 0.30832,0.23651 0.35565,0.22734 0.2851,-0.0552 z m -2.15031,-1.56566 c 0,-0.0291 0.0895,-0.0889 0.19893,-0.13293 0.11408,-0.0459 0.16553,-0.0234 0.12062,0.0528 -0.0753,0.12778 -0.31955,0.18899 -0.31955,0.0801 z m 7.52512,-1.6615 c -1.52757,-0.0252 -2.38094,-0.0879 -2.33183,-0.17124 0.0426,-0.0723 0.23269,-0.13792 0.42241,-0.14579 l 0.34495,-0.0143 -0.35251,-0.14613 c -0.26822,-0.11118 -0.35767,-0.24442 -0.37407,-0.5572 -0.11885,-2.26719 0.0132,-3.43669 0.388,-3.43669 0.11963,0 0.31168,-0.11538 0.42679,-0.25641 0.19588,-0.23999 0.19191,-0.26118 -0.062,-0.33085 -0.14924,-0.0409 -0.22893,-0.11892 -0.17709,-0.17331 0.18499,-0.19406 0.27007,-0.20313 3.03511,-0.32384 0.57703,-0.0252 0.88122,-0.1018 0.98937,-0.24919 0.12415,-0.16921 0.15699,0.41415 0.16023,2.84641 0.002,1.68258 -0.0103,3.04552 -0.028,3.02877 -0.0176,-0.0168 -1.11623,-0.0484 -2.44134,-0.0702 z m 2.15292,-0.4372 c 0.0436,-0.074 0.0181,-0.13447 -0.0565,-0.13447 -0.0747,0 -0.13575,0.0605 -0.13575,0.13447 0,0.074 0.0254,0.13448 0.0565,0.13448 0.0311,0 0.0922,-0.0605 0.13575,-0.13448 z m -0.0641,-1.09818 c 0,-0.38213 -0.0359,-0.65708 -0.0798,-0.61101 -0.0439,0.0461 -0.0779,0.31334 -0.0755,0.59392 0.006,0.64997 0.0135,0.71186 0.0913,0.71186 0.0352,0 0.0641,-0.31265 0.0641,-0.69477 z m -52.014089,-1.28869 0.03465,-2.79029 0.705023,0.0156 c 0.387763,0.009 2.530721,0.0249 4.762129,0.0361 3.32323,0.0168 4.069416,0.0541 4.125168,0.20656 0.03743,0.10234 0.07183,1.34172 0.07643,2.75418 l 0.0084,2.56811 h -4.873209 -4.873209 z m 25.992306,-6.2287 1.7e-5,-2.90053 2.177495,0.0124 c 1.78314,0.0102 2.213421,0.0501 2.375864,0.22053 0.160838,0.16872 0.209174,0.6957 0.25548,2.78535 l 0.05711,2.57725 -0.310068,0.0816 c -0.170537,0.0449 -1.265384,0.0911 -2.432992,0.10274 l -2.122924,0.0211 z m 3.71545,1.17807 c 0.0011,-0.0598 -0.05572,-0.0714 -0.126223,-0.0257 -0.0705,0.0457 -0.127303,0.18543 -0.126224,0.3105 0.0017,0.19596 0.01914,0.19951 0.126224,0.0257 0.06834,-0.11094 0.125143,-0.25066 0.126223,-0.3105 z m -3.305238,-0.52323 c -0.11964,-0.1255 -0.153823,-0.0896 -0.153823,0.16137 0,0.25101 0.03418,0.28687 0.153823,0.16137 0.119641,-0.12551 0.119641,-0.19723 0,-0.32274 z m 1.623974,0.11538 c 0.182581,-0.23078 0.07181,-0.34734 -0.246987,-0.25988 -0.25605,0.0702 -0.313455,0.19338 -0.163492,0.35069 0.129484,0.13584 0.252745,0.10857 0.410479,-0.0908 z m 1.00246,-2.60839 c -0.09406,-0.0987 -0.253365,-0.14613 -0.35401,-0.10545 -0.227798,0.0921 -0.291847,0.86032 -0.09271,1.11204 0.120164,0.15188 0.191422,0.0923 0.382698,-0.32028 0.195939,-0.42258 0.20659,-0.53675 0.06402,-0.68631 z m 39.264757,1.73023 c 1e-5,-2.61652 0.0243,-2.98732 0.18637,-2.84621 0.2261,0.19684 4.27429,0.16651 4.52448,-0.0339 0.12678,-0.10156 0.16292,0.41547 0.17314,2.47669 0.007,1.43278 0.0215,2.77542 0.032,2.98366 l 0.0191,0.3786 -2.46759,0.0248 -2.46759,0.0248 z m 2.8201,-0.2861 c 0,-0.074 -0.0899,-0.13447 -0.19984,-0.13447 -0.10992,0 -0.1642,0.0605 -0.12062,0.13447 0.0436,0.074 0.1335,0.13448 0.19984,0.13448 0.0663,0 0.12062,-0.0605 0.12062,-0.13448 z m 0.29352,-0.13447 c 0.0369,-0.14792 0.0148,-0.26894 -0.0491,-0.26894 -0.0639,0 -0.11618,0.12102 -0.11618,0.26894 0,0.14792 0.0221,0.26895 0.0491,0.26895 0.027,0 0.0793,-0.12103 0.11619,-0.26895 z m -76.595831,-3.26089 c 0.01786,-3.64253 0.04671,-7.73065 0.06409,-9.08471 l 0.03161,-2.46193 1.92279,-0.0383 c 1.057535,-0.0211 2.081422,-0.01 2.275303,0.0246 l 0.352512,0.0629 v 1.53846 c 0,0.84615 -0.05784,1.65183 -0.128533,1.7904 -0.08201,0.16076 -0.08379,0.28095 -0.0049,0.3321 0.07623,0.0494 0.0795,0.20192 0.0085,0.39775 -0.06331,0.17467 -0.07991,0.35451 -0.0369,0.39963 0.112892,0.11843 0.135394,11.85233 0.02426,12.6532 -0.05222,0.37631 -0.04248,0.69209 0.02212,0.71718 0.06348,0.0247 0.115417,0.1003 0.115417,0.16809 0,0.0702 -1.007069,0.12329 -2.339396,0.12331 l -2.339395,5e-5 z m 2.81699,6.2725 c -0.04259,-0.0447 -0.153156,-0.0495 -0.24569,-0.0106 -0.102258,0.0429 -0.07188,0.0748 0.07745,0.0813 0.135129,0.006 0.210839,-0.0259 0.168244,-0.0706 z m -1.249107,-3.05316 c 0.0011,-0.0598 -0.05572,-0.0714 -0.126223,-0.0257 -0.0705,0.0457 -0.127303,0.18543 -0.126223,0.31049 0.0017,0.19597 0.01914,0.19952 0.126223,0.0257 0.06834,-0.11094 0.125144,-0.25067 0.126223,-0.3105 z m 1.732475,-4.66496 c 0.04357,-0.074 0.01814,-0.13447 -0.05653,-0.13447 -0.07466,0 -0.135751,0.0605 -0.135751,0.13447 0,0.074 0.02544,0.13447 0.05653,0.13447 0.03109,0 0.09218,-0.0605 0.135751,-0.13447 z m -0.192279,-1.75607 c 0,-0.15228 -0.05768,-0.23948 -0.128186,-0.19377 -0.0705,0.0457 -0.128186,0.1703 -0.128186,0.27688 0,0.10657 0.05768,0.19377 0.128186,0.19377 0.0705,0 0.128186,-0.1246 0.128186,-0.27688 z m 0,-1.07577 c 0,-0.21752 -0.05096,-0.39548 -0.113243,-0.39548 -0.130778,0 -0.250225,0.53702 -0.173297,0.77912 0.09137,0.28756 0.28654,0.0262 0.28654,-0.38364 z m 0.512744,-0.69304 c 0,-0.1487 -0.353807,-0.13237 -0.443856,0.0205 -0.04094,0.0695 0.04219,0.11712 0.184714,0.10586 0.142528,-0.0113 0.259142,-0.0681 0.259142,-0.12633 z m -0.157934,-1.71952 c -0.08806,-0.14792 -0.212856,-0.26894 -0.277326,-0.26894 -0.06447,0 -0.01281,0.12102 0.114795,0.26894 0.127607,0.14792 0.252404,0.26894 0.277326,0.26894 0.02492,0 -0.02674,-0.12102 -0.114795,-0.26894 z m -0.01056,-1.02841 c -0.114112,-0.1197 -0.344254,0.0851 -0.344254,0.30636 0,0.17561 0.02833,0.17366 0.207539,-0.0143 0.114147,-0.11975 0.175668,-0.25115 0.136715,-0.29202 z m -0.856998,0.0871 c 0,-0.074 -0.06109,-0.13447 -0.135751,-0.13447 -0.07466,0 -0.100101,0.0605 -0.05653,0.13447 0.04357,0.074 0.104661,0.13447 0.135751,0.13447 0.03109,0 0.05653,-0.0605 0.05653,-0.13447 z m 0.897302,-0.80683 c 0,-0.074 -0.08652,-0.13448 -0.192279,-0.13448 -0.105753,0 -0.192279,0.0605 -0.192279,0.13448 0,0.074 0.08653,0.13447 0.192279,0.13447 0.105754,0 0.192279,-0.0605 0.192279,-0.13447 z m 11.854202,14.93147 c 0.04192,-0.0712 0.102244,-0.66088 0.134056,-1.31051 0.03181,-0.64962 0.115827,-1.20141 0.186698,-1.2262 0.08544,-0.0299 0.08385,-0.13327 -0.0047,-0.30687 -0.187856,-0.36822 -0.261668,-3.39972 -0.104418,-4.28853 0.07197,-0.40678 0.126223,-0.80011 0.120566,-0.87407 -0.0057,-0.074 -0.02895,-0.49754 -0.05177,-0.9413 -0.02282,-0.44376 -0.08586,-1.02981 -0.140101,-1.30233 -0.05992,-0.30105 -0.0404,-0.68056 0.04973,-0.96706 l 0.148351,-0.47154 2.240255,0.006 c 1.738174,0.005 2.280295,0.0484 2.418913,0.19384 0.197059,0.20672 1.222459,0.26053 1.222459,0.0642 0,-0.0678 -0.0721,-0.15379 -0.160233,-0.19109 -0.08813,-0.0373 0.780202,-0.0726 1.929622,-0.0784 l 2.089855,-0.0106 -0.032,2.52135 c -0.02284,1.79961 0.01319,2.60795 0.125865,2.8239 l 0.157862,0.30256 h -2.616629 c -1.939733,0 -2.649665,0.0435 -2.744338,0.16809 -0.07932,0.10441 -0.110109,1.27626 -0.08126,3.09286 l 0.04645,2.92476 h -2.505724 c -1.571907,0 -2.477322,-0.0482 -2.42951,-0.12937 z m 0.836218,-2.75384 c 0,-0.0326 -0.05768,-0.0967 -0.128186,-0.14241 -0.0705,-0.0457 -0.128187,-0.019 -0.128187,0.0593 0,0.0783 0.05768,0.14241 0.128187,0.14241 0.0705,0 0.128186,-0.0267 0.128186,-0.0593 z m 0.512744,-4.78168 c 0,-0.1793 -0.08546,-0.26895 -0.256372,-0.26895 -0.170915,0 -0.256372,0.0897 -0.256372,0.26895 0,0.17929 0.08546,0.26894 0.256372,0.26894 0.170914,0 0.256372,-0.0897 0.256372,-0.26894 z M 77.91,148.77287 c 0,-0.10478 -0.0685,-0.16655 -0.152221,-0.13727 -0.232414,0.0813 -0.265218,0.32777 -0.04362,0.32777 0.107712,0 0.19584,-0.0857 0.195841,-0.1905 z m 7.892599,-2.58858 c 0,-0.14792 -0.06876,-0.26895 -0.15281,-0.26895 -0.0897,0 -0.125122,0.11108 -0.08577,0.26895 0.03687,0.14792 0.105638,0.26894 0.152809,0.26894 0.04717,0 0.08577,-0.12102 0.08577,-0.26894 z m 12.105546,4.99813 c -0.563883,-0.0561 -0.613741,-0.14727 -0.516334,-0.94379 0.04358,-0.35637 0.03272,-0.82439 -0.02413,-1.04004 -0.17141,-0.65022 0.02424,-2.56696 0.287529,-2.81692 0.149662,-0.14209 0.254953,-0.16637 0.310745,-0.0717 0.12915,0.21922 0.362943,0.17026 0.27927,-0.0585 -0.0514,-0.1405 0.01251,-0.20493 0.210612,-0.21232 0.156417,-0.006 0.21229,-0.0411 0.124162,-0.0784 -0.08813,-0.0373 -0.160232,-0.12573 -0.160232,-0.1965 0,-0.16105 2.545113,-0.13375 2.841803,0.0305 0.1412,0.0782 0.2393,0.0617 0.28842,-0.0486 0.0431,-0.0967 0.0548,-0.082 0.0279,0.0347 -0.0256,0.11094 0.0345,0.3699 0.13342,0.57546 0.099,0.20556 0.14376,0.43513 0.0996,0.51016 -0.0442,0.075 -0.013,0.22152 0.0693,0.32555 0.15874,0.20064 0.14186,3.83806 -0.0184,3.9677 -0.0457,0.037 -0.66184,0.037 -1.36917,0 -0.707333,-0.037 -1.477504,-0.037 -1.711493,0 -0.233988,0.037 -0.626822,0.0472 -0.872964,0.0227 z m 3.395815,-4.72919 c 0.0436,-0.074 -0.0396,-0.13447 -0.18472,-0.13447 -0.14516,0 -0.26394,0.0605 -0.26394,0.13447 0,0.074 0.0831,0.13447 0.18472,0.13447 0.10159,0 0.22036,-0.0605 0.26394,-0.13447 z m 17.35627,4.33672 c 0.0445,-0.27735 0.073,-1.5118 0.0634,-2.74323 -0.01,-1.23142 0.0184,-2.29703 0.0622,-2.36802 0.0812,-0.13172 3.54946,-6.1e-4 3.68275,0.13922 0.0375,0.0394 0.21868,-0.0102 0.40252,-0.11031 0.18384,-0.10005 0.38166,-0.15119 0.43959,-0.11363 0.0579,0.0376 0.10533,1.33548 0.10533,2.88426 v 2.81597 h -2.41832 -2.41833 z m 3.73033,-0.56357 c 0,-0.0696 -0.0577,-0.16394 -0.12818,-0.20965 -0.0705,-0.0457 -0.12819,0.0112 -0.12819,0.12654 0,0.1153 0.0577,0.20964 0.12819,0.20964 0.0705,0 0.12818,-0.0569 0.12818,-0.12653 z m -2.20229,-2.13861 c 0.0225,-0.1594 -0.0207,-0.28982 -0.0961,-0.28982 -0.0754,0 -0.13894,0.0756 -0.14118,0.16809 -0.002,0.0958 -0.0839,0.0575 -0.18957,-0.0891 -0.15269,-0.21167 -0.23699,-0.23111 -0.47662,-0.10996 -0.20824,0.10528 -0.23151,0.14978 -0.0817,0.15629 0.11515,0.005 0.23966,0.13059 0.27667,0.27908 0.0934,0.37452 0.65223,0.28411 0.70859,-0.11463 z m 9.02561,0.55548 c -0.0161,-1.45802 0.005,-2.76417 0.0468,-2.90253 0.0575,-0.19012 0.15322,-0.23128 0.39168,-0.1685 0.17356,0.0457 1.18002,0.0827 2.23658,0.0823 l 1.92101,-7.6e-4 -0.0619,2.57491 c -0.0373,1.5509 -0.0122,2.67247 0.0632,2.82022 0.11901,0.23327 0.0101,0.2453 -2.22141,0.2453 h -2.34655 z m 3.90102,0.73474 c -0.0356,-0.0924 -0.0647,-0.0168 -0.0647,0.16809 0,0.1849 0.0291,0.26054 0.0647,0.16809 0.0356,-0.0925 0.0356,-0.24373 0,-0.33618 z m -0.59764,0.048 c 0,-0.066 -0.0947,-0.1582 -0.21041,-0.20479 -0.17593,-0.0708 -0.18386,-0.0511 -0.0484,0.12009 0.18461,0.23334 0.25881,0.25762 0.25881,0.0847 z m -0.51518,-1.69837 c -0.13546,-0.17123 -0.12753,-0.1909 0.0484,-0.12008 0.117,0.0471 0.21041,0.0186 0.21041,-0.0642 0,-0.19347 -0.34343,-0.19298 -0.45751,6.5e-4 -0.0485,0.0822 -0.009,0.20233 0.0886,0.26688 0.25948,0.17241 0.2926,0.14736 0.11013,-0.0833 z m -0.33577,-0.5348 c 0.0406,-0.11094 0.0179,-0.20171 -0.0504,-0.20171 -0.0683,0 -0.12416,0.0908 -0.12416,0.20171 0,0.11093 0.0227,0.2017 0.0504,0.2017 0.0277,0 0.0836,-0.0908 0.12416,-0.2017 z m 0.55869,-0.71939 c 0.21542,-0.0662 0.25483,-0.13646 0.16219,-0.28915 -0.0813,-0.13407 -0.12303,-0.14534 -0.12434,-0.0336 -10e-4,0.0925 -0.0631,0.16809 -0.13771,0.16809 -0.0747,0 -0.1001,-0.0605 -0.0565,-0.13447 0.0436,-0.074 -0.0107,-0.13448 -0.12062,-0.13448 -0.10992,0 -0.19985,0.0605 -0.19985,0.13448 0,0.074 -0.0865,0.13447 -0.19228,0.13447 -0.10575,0 -0.19227,0.0605 -0.19227,0.13447 0,0.14748 0.41553,0.15723 0.86141,0.0202 z m 7.22362,4.53358 c 0.0904,-0.17727 0.14355,-0.98297 0.13875,-2.10486 -0.006,-1.29588 0.0318,-1.77617 0.12999,-1.67315 0.0758,0.0795 0.21641,0.11284 0.31255,0.0741 0.13179,-0.0531 0.10776,-0.12731 -0.0977,-0.30182 -0.26431,-0.22452 -0.2735,-0.34247 -0.30662,-3.93746 -0.027,-2.92735 -0.0733,-3.78439 -0.22047,-4.07907 l -0.18633,-0.37307 -2.51757,0.0304 -2.51757,0.0304 -0.0245,-1.65665 c -0.0135,-0.91116 -0.0303,-2.24665 -0.0375,-2.96775 l -0.0131,-1.3111 h 5.02569 5.02569 l -0.021,9.27842 -0.0209,9.27843 -2.408,1.3e-4 -2.408,1.2e-4 z m 1.52892,-2.68706 c 0,-0.15257 -0.0579,-0.23141 -0.1338,-0.18219 -0.0736,0.0477 -0.21851,0.013 -0.32205,-0.0771 -0.14293,-0.12444 -0.15323,-0.20815 -0.0428,-0.34776 0.08,-0.10113 0.12398,-0.1885 0.0977,-0.19415 -0.41194,-0.0888 -0.48627,-0.0813 -0.41393,0.0415 0.046,0.0781 0.0789,0.31984 0.073,0.53714 -0.008,0.29532 0.037,0.37589 0.17815,0.31906 0.10387,-0.0418 0.22156,0.0134 0.26153,0.12265 0.0973,0.26606 0.30218,0.11754 0.30218,-0.21908 z m 0.35553,-0.45445 c 0.0931,-0.0772 -0.14118,-0.45961 -0.24168,-0.39445 -0.0636,0.0412 -0.15027,-0.0196 -0.19256,-0.13524 -0.0829,-0.22652 -0.43403,-0.29323 -0.43403,-0.0824 0,0.0703 0.0939,0.18293 0.20874,0.25033 0.14271,0.0838 0.16298,0.15221 0.0641,0.21633 -0.27871,0.1807 -0.14366,0.35173 0.20786,0.26326 0.19388,-0.0488 0.36829,-0.1018 0.38758,-0.11779 z m -43.725106,-1.9053 c -0.17576,-0.18438 -0.07507,-0.31377 0.244164,-0.31377 0.292996,0 0.308257,0.0224 0.137342,0.20171 -0.216136,0.22673 -0.25993,0.23959 -0.381506,0.11206 z M 71.59262,145.0197 c -0.03607,-0.0621 -0.105429,-1.28023 -0.154128,-2.707 -0.06652,-1.94892 -0.04995,-2.64292 0.06664,-2.79029 0.123263,-0.15581 0.547464,-0.19615 2.062279,-0.19615 h 1.907095 l 0.01737,1.10939 c 0.02517,1.6075 -0.01906,4.45055 -0.07007,4.50406 -0.101317,0.10628 -3.76938,0.18291 -3.829185,0.08 z m 52.33869,-0.0226 c 0.001,-0.0496 -0.0131,-1.33072 -0.032,-2.84689 l -0.0345,-2.75667 1.47414,-0.035 c 0.81078,-0.0192 1.8145,0.011 2.2305,0.0672 0.7384,0.0998 0.76065,0.11499 0.93683,0.6401 0.12997,0.38736 0.1718,1.08357 0.14949,2.48773 -0.017,1.07241 0.013,2.08817 0.0667,2.25723 l 0.0977,0.3074 -2.44563,-0.0155 c -1.3451,-0.009 -2.44452,-0.0561 -2.44316,-0.10569 z m 4.33839,-1.40132 c -0.01,-0.31432 -0.0425,-0.43535 -0.073,-0.26894 -0.0305,0.16641 -0.14815,0.30256 -0.26134,0.30256 -0.17486,0 -0.1687,0.0392 0.041,0.26095 0.13572,0.14353 0.26118,0.26455 0.2788,0.26895 0.0176,0.004 0.0242,-0.24919 0.0146,-0.56352 z m -1.30713,-0.72838 c -0.0403,-0.0423 -0.15977,0.0139 -0.26553,0.12486 -0.10575,0.11094 -0.15931,0.23629 -0.11903,0.27855 0.0403,0.0423 0.15978,-0.0139 0.26553,-0.12487 0.10575,-0.11093 0.15932,-0.23628 0.11903,-0.27854 z m -1.23913,-2.06341 c 0,-0.0731 -0.053,-0.13297 -0.1177,-0.13297 -0.0647,0 -0.19933,-0.0329 -0.2991,-0.073 -0.10074,-0.0405 -0.1814,0.007 -0.1814,0.107 0,0.099 0.13459,0.1917 0.2991,0.20599 0.1645,0.0143 0.2991,-0.0339 0.2991,-0.107 z m 1.3397,-0.0738 c 0.28013,-0.19255 0.60276,-0.70878 0.33411,-0.53461 -0.0648,0.042 -0.15419,0.0148 -0.19859,-0.0606 -0.0542,-0.0919 -0.16826,-0.0879 -0.34664,0.0123 -0.19604,0.11006 -0.22336,0.17687 -0.10399,0.25427 0.25665,0.16639 0.0394,0.37442 -0.31651,0.30305 -0.18967,-0.038 -0.32352,-0.003 -0.32352,0.0853 0,0.22048 0.60233,0.18288 0.95514,-0.0596 z m -0.82696,-0.40328 c 0,-0.11531 -0.0586,-0.17164 -0.13027,-0.12518 -0.0717,0.0464 -0.0971,0.14079 -0.0565,0.20964 0.10988,0.18652 0.1868,0.15174 0.1868,-0.0845 z m -11.98539,4.55548 c -0.14101,-0.0379 -0.30795,-0.1201 -0.37098,-0.18274 -0.0635,-0.0631 0.008,-0.0803 0.16023,-0.0385 0.15982,0.0438 0.27484,0.0126 0.27484,-0.0748 0,-0.0826 -0.0618,-0.15016 -0.13734,-0.15016 -0.19418,0 -0.50359,-0.34936 -0.50359,-0.56862 0,-0.10143 -0.0645,-0.25204 -0.14325,-0.33469 -0.13766,-0.14441 -0.13125,-0.39553 0.074,-2.89883 0.11428,-1.39403 0.0522,-1.35964 2.29056,-1.2694 1.66918,0.0673 1.95927,0.11168 2.10726,0.32239 0.12861,0.18313 0.16426,0.74503 0.14229,2.24282 -0.0372,2.53709 -0.10422,2.98746 -0.43824,2.94526 -0.13809,-0.0174 -0.43688,-0.0423 -0.66397,-0.0553 -0.36858,-0.021 -0.38922,-0.0424 -0.19228,-0.19932 0.14831,-0.11818 0.16562,-0.17719 0.0528,-0.18007 -0.0923,-0.002 -0.13214,-0.0648 -0.0886,-0.13875 0.0436,-0.074 -0.0396,-0.13447 -0.18472,-0.13447 -0.1758,0 -0.26393,0.0872 -0.26393,0.26101 0,0.14355 -0.062,0.3012 -0.13778,0.35033 -0.17891,0.11599 -1.64519,0.19294 -1.97729,0.10376 z m 2.88418,-1.58123 c 0,-0.0326 -0.0577,-0.0967 -0.12818,-0.14241 -0.0705,-0.0457 -0.12819,-0.019 -0.12819,0.0593 0,0.0783 0.0577,0.14241 0.12819,0.14241 0.0705,0 0.12818,-0.0267 0.12818,-0.0593 z m -0.54988,-0.47859 c -0.0369,-0.14792 -0.0114,-0.26894 0.0567,-0.26894 0.0681,0 0.0906,-0.0563 0.05,-0.12518 -0.0406,-0.0688 -0.009,-0.16718 0.0702,-0.21852 0.102,-0.0661 0.0933,-0.12703 -0.03,-0.20894 -0.26206,-0.17419 -0.30977,-0.14754 -0.32741,0.18284 -0.0213,0.39877 0.0745,0.90769 0.17089,0.90769 0.0421,0 0.0464,-0.12103 0.01,-0.26895 z M 65.988737,132.6699 c 0,-3.36515 -0.01442,-6.16385 -0.03205,-6.21932 -0.01762,-0.0555 1.107207,-0.11726 2.499628,-0.13731 1.659958,-0.0239 2.531675,0.0108 2.531675,0.10085 0,0.0755 -0.06109,0.13732 -0.135751,0.13732 -0.07466,0 -0.09857,0.0631 -0.05314,0.14023 0.148683,0.25237 0.09617,11.32382 -0.05566,11.73501 l -0.13954,0.3779 -1.890979,-0.0832 c -1.040039,-0.0458 -2.020768,-0.11109 -2.179398,-0.14514 -0.158631,-0.0341 -0.288419,-2.5e-4 -0.288419,0.0751 0,0.0754 -0.05768,0.13704 -0.128186,0.13704 -0.08358,0 -0.128186,-2.12914 -0.128186,-6.11847 z m 3.744049,4.01327 c 0.07116,-0.63942 -0.05019,-1.31562 -0.243114,-1.3547 -0.09495,-0.0192 -0.12899,0.0821 -0.09033,0.26894 0.113911,0.5505 0.158295,1.22238 0.07178,1.08664 -0.134451,-0.21096 -0.534109,-0.32705 -0.534109,-0.15514 0,0.19495 0.403267,0.62733 0.59486,0.6378 0.08041,0.004 0.170824,-0.2132 0.20091,-0.48354 z m 0.101533,-2.66433 c 0,-0.36825 -0.04229,-0.44941 -0.200896,-0.38556 -0.142366,0.0573 -0.161039,0.12268 -0.06409,0.22438 0.07524,0.0789 0.136802,0.25243 0.136802,0.38556 0,0.13313 0.02884,0.24205 0.06409,0.24205 0.03525,0 0.06409,-0.20989 0.06409,-0.46643 z m -0.417599,-3.46687 c 0.01971,-0.40076 0.01131,-0.41089 -0.101169,-0.12205 -0.06746,0.17324 -0.0903,0.3699 -0.05075,0.43703 0.111608,0.18944 0.128877,0.15364 0.151922,-0.31498 z m -0.551359,-1.29095 c -0.109363,-0.13044 -0.290896,0.15249 -0.220796,0.34412 0.07113,0.19444 0.09175,0.18986 0.17059,-0.0379 0.04932,-0.14251 0.07192,-0.2803 0.05021,-0.3062 z m 0.914478,-0.12212 c -0.1302,-0.13659 -0.365949,0.20124 -0.262715,0.37647 0.07068,0.11996 0.128812,0.10251 0.218497,-0.0656 0.06721,-0.12598 0.08711,-0.26587 0.04422,-0.31086 z m 0.05448,-1.56932 c 0,-0.0423 -0.08653,-0.0768 -0.19228,-0.0768 -0.109031,0 -0.192279,0.1206 -0.192279,0.27855 0,0.2476 0.02137,0.25613 0.192279,0.0768 0.105754,-0.11094 0.19228,-0.23629 0.19228,-0.27855 z m -0.927855,-0.84159 c -0.122557,-0.0337 -0.353292,-0.0349 -0.512744,-0.003 -0.159452,0.0322 -0.05918,0.0597 0.222831,0.0612 0.282009,10e-4 0.41247,-0.0248 0.289913,-0.0585 z m 1.48808,-0.0139 c 0.03444,-0.0585 -0.162573,-0.11569 -0.437799,-0.12721 -0.275226,-0.0115 -0.534137,0.0363 -0.575356,0.10628 -0.04234,0.0719 0.148126,0.12721 0.437799,0.12721 0.28201,0 0.54092,-0.0478 0.575356,-0.10628 z m 5.828743,8.43074 c -0.07115,-0.0464 -0.09688,-0.58394 -0.06116,-1.27749 0.03392,-0.65859 0.06614,-2.05975 0.07159,-3.11367 0.0099,-1.90688 0.01135,-1.91622 0.304736,-1.91622 0.162156,0 0.372511,0.0756 0.467457,0.16809 0.139138,0.13547 0.153545,0.13287 0.07426,-0.0134 -0.07918,-0.1461 -0.04627,-0.15225 0.1687,-0.0316 0.17566,0.0986 0.239148,0.22627 0.185494,0.37294 -0.06654,0.18192 -0.03399,0.17535 0.176719,-0.0357 0.142061,-0.14226 0.227528,-0.31918 0.189927,-0.39314 -0.0376,-0.074 0.02979,-0.0509 0.149746,0.0512 0.141858,0.12073 0.394729,0.16077 0.723297,0.11454 0.277851,-0.0391 0.522646,-0.0161 0.543987,0.051 0.02134,0.0672 0.169942,0.14861 0.330222,0.18099 0.160281,0.0324 0.261686,0.008 0.225344,-0.0533 -0.03634,-0.0617 0.04859,-0.14361 0.188728,-0.18205 0.140141,-0.0385 0.285549,-0.0177 0.323129,0.0461 0.03758,0.0638 0.145887,0.0848 0.240684,0.0466 0.104387,-0.042 0.201473,0.0531 0.246185,0.2412 0.08753,0.36825 0.155975,5.59363 0.07439,5.67922 -0.08832,0.0926 -4.486064,0.15417 -4.623428,0.0647 z m 0.88306,-3.87758 c -0.01025,-0.14279 -0.06183,-0.23162 -0.114621,-0.1974 -0.05279,0.0342 -0.06348,0.15106 -0.02377,0.25963 0.100144,0.27377 0.160566,0.2466 0.13839,-0.0622 z m 15.21046,3.91709 c -0.240131,-0.036 -0.279565,-0.15686 -0.350861,-1.07577 -0.08212,-1.05844 0.0013,-5.53009 0.117649,-6.30716 0.05,-0.33389 0.112514,-0.4116 0.277656,-0.34512 0.135028,0.0543 0.156788,0.1055 0.05938,0.13956 -0.18497,0.0647 -0.208185,0.70371 -0.02557,0.70371 0.0705,0 0.128186,-0.0951 0.128186,-0.21131 0,-0.11623 0.08092,-0.29621 0.179829,-0.39996 0.154314,-0.16188 0.190748,-0.1588 0.256788,0.0217 0.09294,0.25406 -0.02354,0.48942 -0.189102,0.38208 -0.18733,-0.12146 -0.139571,0.071 0.07295,0.29389 0.105754,0.11094 0.19228,0.14096 0.19228,0.0667 0,-0.0743 0.129788,-0.17751 0.288418,-0.22944 0.15863,-0.0519 0.330798,-0.16191 0.382595,-0.24439 0.05948,-0.0947 0.0949,-0.0662 0.09614,0.0774 0.0011,0.12506 -0.05572,0.26479 -0.126223,0.31049 -0.0705,0.0457 -0.121495,0.21569 -0.113316,0.37774 0.01161,0.23 0.02779,0.24264 0.07379,0.0576 0.03241,-0.13033 0.112243,-0.2024 0.177409,-0.16015 0.116105,0.0753 0.169406,-0.10926 0.128054,-0.44333 -0.03452,-0.27887 0.351505,-0.1886 0.439673,0.10281 0.04508,0.14899 0.141671,0.23218 0.21465,0.18487 0.08376,-0.0543 0.102067,0.0152 0.04965,0.18844 -0.04567,0.15095 -0.0277,0.31034 0.03993,0.35419 0.06763,0.0438 0.160366,-0.0989 0.206072,-0.31719 0.05665,-0.27057 0.141576,-0.37338 0.266803,-0.32296 0.11569,0.0466 0.183701,-0.0119 0.183701,-0.15783 0,-0.16413 -0.07345,-0.21163 -0.251659,-0.16274 -0.284202,0.078 -0.446429,-0.0851 -0.5725,-0.57556 -0.08212,-0.31945 -0.07672,-0.32348 0.108392,-0.0811 0.107145,0.14033 0.1579,0.32187 0.112789,0.40342 -0.04511,0.0815 0.02884,0.0503 0.164338,-0.0695 0.283622,-0.25072 0.586058,-0.19297 0.481817,0.092 -0.03883,0.10616 -0.0068,0.19302 0.07129,0.19302 0.07805,0 0.141901,0.0872 0.141901,0.19377 0,0.10657 0.0576,0.23111 0.127994,0.27675 0.0704,0.0456 0.118941,-0.0264 0.107876,-0.16015 -0.01107,-0.13373 -0.0089,-0.45493 0.0047,-0.71379 0.02479,-0.46945 0.02529,-0.46982 0.197355,-0.14398 l 0.172503,0.32668 0.08951,-0.42753 c 0.04923,-0.23514 0.136193,-0.42753 0.193247,-0.42753 0.194982,0 0.241894,0.87578 0.246509,4.60203 l 0.0046,3.72796 -2.07836,-0.03 c -1.143098,-0.0165 -2.200102,-0.0482 -2.348897,-0.0705 z m 37.139173,-3.1069 c -0.2207,-0.14664 -0.0974,-0.9839 0.18053,-1.22587 0.10388,-0.0905 0.18888,-0.22496 0.18888,-0.29892 0,-0.0755 -0.0837,-0.0616 -0.19076,0.0316 -0.15268,0.13292 -0.20187,0.1295 -0.24638,-0.0172 -0.25158,-0.82874 -0.13624,-2.63441 0.16395,-2.5668 0.11714,0.0264 0.10635,-0.0494 -0.0378,-0.26524 -0.11097,-0.1662 -0.20176,-0.44 -0.20176,-0.60844 0,-0.23703 0.0724,-0.30626 0.32046,-0.30626 0.17626,0 0.32047,-0.0617 0.32047,-0.13703 0,-0.0763 -0.13214,-0.10225 -0.29793,-0.0586 -0.18911,0.0498 -0.35872,0.002 -0.46435,-0.13191 -0.14998,-0.18958 0.077,-0.21035 2.29853,-0.21035 2.19504,0 2.45643,0.0233 2.38714,0.21271 -0.0428,0.11699 -0.0778,1.44826 -0.0778,2.95838 v 2.74567 l -2.08302,-0.002 c -1.14567,-0.001 -2.16274,-0.055 -2.26016,-0.11974 z m 1.65127,-1.0356 c 0,-0.0291 -0.0865,-0.0529 -0.19228,-0.0529 -0.10575,0 -0.19228,0.0586 -0.19228,0.13026 0,0.0716 0.0865,0.0954 0.19228,0.0528 0.10576,-0.0426 0.19228,-0.10118 0.19228,-0.13025 z m 2.56176,-0.55711 c -0.002,-0.28817 -0.0294,-0.32528 -0.12622,-0.16809 -0.16208,0.26309 -0.16208,0.53788 0,0.53788 0.0705,0 0.1273,-0.16641 0.12622,-0.36979 z m -1.66445,-1.46145 c 0,-0.11094 -0.0577,-0.16431 -0.12819,-0.1186 -0.0705,0.0457 -0.12819,0.17388 -0.12819,0.28482 0,0.11094 0.0577,0.16431 0.12819,0.1186 0.0705,-0.0457 0.12819,-0.17388 0.12819,-0.28482 z m 0.97659,-0.17657 c -0.0281,-0.58566 -0.20748,-0.67119 -0.20748,-0.0989 0,0.27118 0.0509,0.49306 0.11319,0.49306 0.0622,0 0.10468,-0.17737 0.0943,-0.39415 z m -0.19407,-1.45535 c 0.082,-0.23237 0.0616,-0.27221 -0.10465,-0.20527 -0.16152,0.065 -0.19055,0.0197 -0.13364,-0.20857 0.04,-0.16039 0.0204,-0.2945 -0.0435,-0.29803 -0.73773,-0.0407 -2.20259,-0.001 -2.26178,0.0608 -0.042,0.044 0.0803,0.08 0.27168,0.08 0.21894,0 0.46303,0.13713 0.65824,0.3698 0.2169,0.25851 0.31149,0.30707 0.31432,0.16136 0.002,-0.11463 -0.0652,-0.28104 -0.14977,-0.36979 -0.11964,-0.12551 -0.0271,-0.1579 0.4166,-0.14577 0.31374,0.009 0.46525,0.0441 0.33669,0.079 -0.1345,0.0365 -0.2049,0.14221 -0.16583,0.24903 0.0373,0.10211 0.0118,0.22202 -0.0568,0.26648 -0.23789,0.15423 0.0321,0.34321 0.42339,0.29633 0.25995,-0.0311 0.42782,-0.1449 0.49501,-0.33545 z m -38.964238,0.32549 c -0.105998,-0.13398 -0.09917,-0.1793 0.02703,-0.1793 0.09288,0 0.168879,0.0807 0.168879,0.1793 0,0.0986 -0.01216,0.17929 -0.02703,0.17929 -0.01487,0 -0.09086,-0.0807 -0.168879,-0.17929 z m -1.427778,-0.54384 c 0,-0.0279 0.08653,-0.1261 0.192279,-0.21817 0.157478,-0.1371 0.192279,-0.12791 0.192279,0.0508 0,0.12 -0.08653,0.21817 -0.192279,0.21817 -0.105753,0 -0.192279,-0.0228 -0.192279,-0.0508 z m 1.239132,-0.30782 c -0.159138,-0.16694 -0.08661,-0.41656 0.138868,-0.4779 0.340415,-0.0926 0.544791,0.0236 0.544791,0.30981 0,0.18037 -0.08979,0.25774 -0.299101,0.25774 -0.164505,0 -0.337556,-0.0403 -0.384558,-0.0896 z m 2.060981,-0.12397 c -0.116634,-0.12236 0.286962,-0.44883 0.56182,-0.45446 0.114746,-0.002 0.287797,0.0981 0.384558,0.22324 0.100223,0.12962 0.110789,0.18654 0.02455,0.13228 -0.08326,-0.0524 -0.187703,-0.0336 -0.232105,0.0418 -0.05398,0.0916 -0.159661,0.0927 -0.318982,0.003 -0.161562,-0.0907 -0.252755,-0.0881 -0.283309,0.008 -0.02478,0.078 -0.08622,0.0986 -0.136535,0.0458 z m -24.322158,-3.71968 c -2.57e-4,-1.53466 0.01395,-2.83567 0.03158,-2.89114 0.01763,-0.0555 0.40699,-0.0896 0.865256,-0.0757 0.458265,0.0138 2.614975,0.0348 4.79269,0.0466 l 3.959481,0.0215 -0.09697,1.02912 c -0.05333,0.56602 -0.106259,1.26672 -0.117618,1.55711 -0.01136,0.29039 -0.07939,0.54853 -0.151189,0.57363 -0.153281,0.0536 -0.07868,0.95103 0.08805,1.05912 0.06271,0.0407 0.114023,0.21974 0.114023,0.39795 0,0.2366 -0.05329,0.30257 -0.197521,0.24451 -0.108636,-0.0437 -0.188923,-0.0267 -0.178415,0.0378 0.01051,0.0645 -0.0227,0.2535 -0.0738,0.41991 -0.105105,0.34229 -0.447564,0.41339 -0.447564,0.0929 0,-0.1153 -0.0576,-0.1723 -0.127994,-0.12666 -0.07382,0.0479 -0.114512,-0.0482 -0.09614,-0.22695 0.02408,-0.2343 -0.04092,-0.32086 -0.266364,-0.35469 -0.19446,-0.0292 -0.27416,-0.11053 -0.229069,-0.2338 0.05595,-0.15296 0.02357,-0.15917 -0.169688,-0.0326 -0.131361,0.0861 -0.21182,0.23034 -0.178797,0.32061 0.03302,0.0903 -0.0016,0.20409 -0.07688,0.25292 -0.07531,0.0488 -0.136925,0.0285 -0.136925,-0.0452 0,-0.0779 -0.187193,-0.10209 -0.447566,-0.0578 -0.270718,0.0461 -0.523326,0.0102 -0.639298,-0.0907 -0.105452,-0.0918 -0.278991,-0.1318 -0.385643,-0.0889 -0.106651,0.0429 -0.193911,0.0248 -0.193911,-0.0403 0,-0.0651 -0.100947,-0.10202 -0.224326,-0.0821 -0.123379,0.02 -0.266705,-0.0308 -0.318502,-0.11275 -0.05483,-0.0868 -0.095,-0.026 -0.09614,0.14558 -0.0011,0.16204 -0.05965,0.33202 -0.130149,0.37773 -0.0705,0.0457 -0.128186,0.20056 -0.128186,0.34412 0,0.28155 -0.174491,0.29753 -3.492602,0.31984 l -1.249345,0.008 z m 6.537021,1.3111 c 0,-0.11094 -0.05768,-0.20171 -0.128186,-0.20171 -0.0705,0 -0.128186,0.0908 -0.128186,0.20171 0,0.11094 0.05768,0.20171 0.128186,0.20171 0.0705,0 0.128186,-0.0908 0.128186,-0.20171 z m 1.602326,-0.47065 c 0.04357,-0.074 -0.01071,-0.13447 -0.120621,-0.13447 -0.109915,0 -0.199844,0.0605 -0.199844,0.13447 0,0.074 0.05428,0.13447 0.12062,0.13447 0.06634,0 0.156272,-0.0605 0.199845,-0.13447 z m -1.47414,-3.3618 c 0,-0.074 -0.216314,-0.13951 -0.480698,-0.14567 -0.264383,-0.006 -0.624907,-0.0288 -0.801162,-0.0503 -0.512326,-0.0624 -0.622226,0.11846 -0.128187,0.21098 0.729306,0.13658 1.410047,0.12932 1.410047,-0.015 z m 0.215752,-0.15968 c -0.04092,-0.10727 -0.0713,-0.0754 -0.07745,0.0812 -0.0056,0.14176 0.02473,0.22118 0.06733,0.1765 0.04259,-0.0447 0.04715,-0.16067 0.01012,-0.25774 z m 35.410332,5.12503 c -0.22314,-0.23409 -0.25056,-0.36952 -0.17013,-0.84045 0.0527,-0.30877 0.0907,-0.65216 0.0844,-0.7631 -0.006,-0.11094 -0.0448,-1.00543 -0.0855,-1.98776 l -0.074,-1.78604 7.31349,0.0138 c 5.55744,0.0105 7.3001,0.0519 7.25776,0.17239 -0.0306,0.0872 -0.12062,0.14342 -0.19993,0.12493 -0.0793,-0.0185 -0.14421,0.0612 -0.14421,0.17702 0,0.37044 0.68035,0.18577 0.77601,-0.21064 0.12698,-0.52616 0.29439,1.90736 0.21089,3.06555 -0.0398,0.5524 -0.14242,1.07196 -0.22799,1.15457 -0.11497,0.111 -0.13414,0.11001 -0.0734,-0.004 0.10261,-0.19233 -0.20387,-0.32822 -0.4217,-0.18698 -0.0889,0.0576 -0.37209,0.0535 -0.62931,-0.009 -0.67365,-0.16424 -0.69633,-0.15604 -0.62665,0.22634 0.04,0.2197 -10e-4,0.3727 -0.11251,0.41751 -0.0966,0.0389 -0.13828,0.13425 -0.0925,0.21189 0.0486,0.0825 0.0216,0.10122 -0.0652,0.045 -0.10393,-0.0674 -0.10976,-0.1718 -0.0195,-0.3488 0.0911,-0.17855 0.084,-0.28171 -0.0241,-0.35182 -0.0842,-0.0546 -0.17564,-0.028 -0.2033,0.0591 -0.0277,0.0871 -0.16086,0.15828 -0.29599,0.15828 -0.13513,0 -0.24569,0.0605 -0.24569,0.13447 0,0.074 0.11537,0.13448 0.25637,0.13448 0.26808,0 0.30858,0.10424 0.17857,0.45965 -0.0687,0.18772 -0.55138,0.2127 -4.10952,0.2127 -2.85407,0 -4.00672,-0.0424 -3.94616,-0.14521 0.0471,-0.0799 -0.0361,-0.23459 -0.18471,-0.34381 -0.34345,-0.25235 -0.34625,-0.45228 -0.006,-0.45228 0.14516,0 0.22829,-0.0605 0.18471,-0.13447 -0.0914,-0.1552 -0.5844,-0.18471 -0.56165,-0.0336 0.0554,0.36789 -0.0369,0.72057 -0.17542,0.67065 -0.0881,-0.0318 -0.30789,-0.0141 -0.48836,0.0393 -0.4183,0.12372 -0.80046,-0.13455 -0.61427,-0.41514 0.098,-0.14773 0.14421,-0.1539 0.19372,-0.0259 0.0358,0.0924 0.19825,0.16809 0.36109,0.16809 0.29448,0 0.45168,-0.22485 0.45168,-0.64605 0,-0.17102 -0.0449,-0.15343 -0.19954,0.0782 -0.22051,0.33026 -0.47287,0.40693 -0.36453,0.11076 0.0378,-0.10346 -0.002,-0.23384 -0.0879,-0.28972 -0.10959,-0.071 -0.12409,-0.0448 -0.0482,0.0872 0.0856,0.1489 0.0694,0.15704 -0.0763,0.0385 -0.10166,-0.0827 -0.37673,-0.15444 -0.61126,-0.15939 -0.26321,-0.006 -0.51429,-0.11528 -0.65597,-0.28665 -0.27335,-0.33063 -0.59053,-0.36012 -0.6985,-0.0649 -0.10971,0.29992 -0.10113,0.32519 0.11045,0.32519 0.12277,0 0.15984,0.0777 0.10656,0.22332 -0.0663,0.18135 -0.0243,0.20758 0.22362,0.13956 0.19592,-0.0537 0.39887,-0.003 0.56641,0.14291 0.14361,0.12467 0.189,0.14053 0.10087,0.0353 -0.22744,-0.27171 -0.19837,-0.4129 0.0641,-0.31131 0.32958,0.12756 0.41568,0.32765 0.26669,0.6197 -0.0726,0.14234 -0.083,0.23084 -0.0231,0.19666 0.0599,-0.0342 0.20987,0.0493 0.33325,0.18548 0.2171,0.23964 0.18512,0.24761 -0.99344,0.24761 -1.06156,0 -1.25189,-0.0358 -1.48378,-0.27905 z m 14.11011,-1.33461 c 0,-0.074 -0.0254,-0.13447 -0.0565,-0.13447 -0.0311,0 -0.0922,0.0605 -0.13575,0.13447 -0.0436,0.074 -0.0181,0.13448 0.0565,0.13448 0.0747,0 0.13576,-0.0605 0.13576,-0.13448 z M 115.85311,123.862 c 0,-0.074 -0.0611,-0.13447 -0.13575,-0.13447 -0.0747,0 -0.1001,0.0605 -0.0565,0.13447 0.0436,0.074 0.10466,0.13447 0.13575,0.13447 0.0311,0 0.0565,-0.0605 0.0565,-0.13447 z m -0.38456,-0.26894 c 0,-0.074 -0.0865,-0.13448 -0.19227,-0.13448 -0.10576,0 -0.19228,0.0605 -0.19228,0.13448 0,0.074 0.0865,0.13447 0.19228,0.13447 0.10575,0 0.19227,-0.0605 0.19227,-0.13447 z m -0.51274,-0.79425 c 0,-0.067 -0.11537,-0.0902 -0.25637,-0.0516 -0.14101,0.0387 -0.25637,0.0935 -0.25637,0.12188 0,0.0284 0.11536,0.0516 0.25637,0.0516 0.141,0 0.25637,-0.0549 0.25637,-0.12189 z m 13.33135,-1.68555 c 0,-0.14193 -0.246,-0.20156 -0.31917,-0.0774 -0.0443,0.0752 0.009,0.13666 0.11933,0.13666 0.10991,0 0.19984,-0.0267 0.19984,-0.0593 z m -10.38307,-0.61306 c 0,-0.074 -0.14761,-0.13447 -0.32803,-0.13447 -0.18605,0 -0.29374,0.0582 -0.24881,0.13447 0.0436,0.074 0.19119,0.13448 0.32803,0.13448 0.13685,0 0.24881,-0.0605 0.24881,-0.13448 z m 1.47782,-0.0731 c -0.13898,-0.111 -0.33117,-0.17023 -0.42709,-0.13162 -0.0959,0.0386 -0.2562,0.0702 -0.35619,0.0702 -0.1,0 -0.1818,0.0507 -0.1818,0.11267 0,0.062 0.274,0.1212 0.60889,0.13162 0.56664,0.0176 0.59135,0.005 0.35619,-0.18287 z m 0.79481,-0.008 c -0.0426,-0.0447 -0.15315,-0.0495 -0.24569,-0.0106 -0.10226,0.0429 -0.0719,0.0748 0.0774,0.0812 0.13513,0.006 0.21084,-0.0259 0.16824,-0.0706 z m 6.65376,4.72129 c 0.0404,-0.11051 0.12608,-0.16684 0.19034,-0.12518 0.13442,0.0872 0.0265,0.32612 -0.14725,0.32612 -0.0641,0 -0.0835,-0.0904 -0.0431,-0.20094 z m -45.459416,-8.33886 v -2.8903 h 15.766884 15.766882 v 2.8239 2.82391 l -15.478463,0.01 c -8.513156,0.005 -15.608255,0.0354 -15.766885,0.0664 l -0.288418,0.0564 z m 11.937653,0.77405 c 0.159447,-0.21328 0.154913,-0.21803 -0.0484,-0.0508 -0.213525,0.17567 -0.28143,0.2861 -0.175928,0.2861 0.02662,0 0.127565,-0.1059 0.224325,-0.23533 z m 19.339743,-2.41377 c 0,-0.36901 -0.0373,-0.4584 -0.14444,-0.34602 -0.0816,0.0856 -0.10841,0.30208 -0.0617,0.49755 0.11789,0.49274 0.20609,0.4279 0.20609,-0.15153 z m 0,-0.85993 c 0,-0.12555 -1.13598,-0.1243 -1.34595,0.001 -0.16747,0.10032 0.68445,0.23475 1.05753,0.16688 0.15863,-0.0289 0.28842,-0.10462 0.28842,-0.16835 z m -18.843349,0.0167 c 0.266163,-0.0658 -1.386192,-0.11651 -4.062342,-0.12467 -2.548944,-0.008 -4.541988,0.0388 -4.582254,0.10719 -0.09032,0.1533 8.028717,0.16972 8.644596,0.0175 z m 1.082193,0.009 c 0.03951,-0.0671 -0.04361,-0.0903 -0.184714,-0.0515 -0.299313,0.0821 -0.337148,0.17348 -0.07184,0.17348 0.101593,0 0.21704,-0.0549 0.256549,-0.12193 z m 4.814365,-0.0125 c 0.128037,-0.0868 -0.589336,-0.13104 -2.147116,-0.13241 -1.475448,-0.001 -2.339395,0.0476 -2.339395,0.13241 0,0.1765 4.226161,0.1765 4.486511,0 z m 2.563721,0 c 0,-0.17249 -1.41199,-0.17249 -1.66642,0 -0.13393,0.0908 0.0897,0.13098 0.73707,0.13242 0.53542,10e-4 0.92935,-0.055 0.92935,-0.13242 z m 0.64093,0 c 0.14983,-0.10158 0.11446,-0.13081 -0.16023,-0.13241 -0.19388,-0.001 -0.35251,0.0584 -0.35251,0.13241 0,0.17003 0.26194,0.17003 0.51274,0 z m 7.2361,0.0109 c 0.0411,-0.0698 -0.2627,-0.12528 -0.69745,-0.12746 -0.42365,-0.002 -0.77028,0.0535 -0.77028,0.1236 0,0.16397 1.37128,0.16758 1.46773,0.004 z"
         id="path8" /></g></g></svg>
